/* XPM */
static char *ad953d4f1c064aae8054e93d0b94acc7AeWsW4PLBUbBhTVu[] = {
/* columns rows colors chars-per-pixel */
"64 64 223 2 ",
"   c #020202",
".  c #0A0102",
"X  c #010902",
"o  c #02020A",
"O  c #0B010B",
"+  c #000A09",
"@  c #0B0900",
"#  c #120002",
"$  c #010112",
"%  c #0A0010",
"&  c #040E10",
"*  c #141E13",
"=  c #1A1C17",
"-  c #181C1C",
";  c #14191D",
":  c #350002",
">  c #3D0101",
",  c #3D0B00",
"<  c #33030B",
"1  c #3D010A",
"2  c #2D1D0D",
"3  c #351C0A",
"4  c #271A1A",
"5  c #361D16",
"6  c #1B261C",
"7  c #25250D",
"8  c #2E250B",
"9  c #2A2909",
"0  c #33230C",
"q  c #3A220E",
"w  c #352A0E",
"e  c #362D09",
"r  c #35340C",
"t  c #2E2612",
"y  c #2A2B13",
"u  c #272918",
"i  c #362411",
"p  c #3A2615",
"a  c #322B14",
"s  c #3B2B13",
"d  c #332418",
"f  c #322C1B",
"g  c #3C2C1B",
"h  c #293412",
"j  c #333114",
"k  c #3A3314",
"l  c #3B311B",
"z  c #3D3B19",
"x  c #333818",
"c  c #1B1C22",
"v  c #1F1C2D",
"b  c #2E2D2F",
"n  c #2F2822",
"m  c #352B26",
"M  c #3D3827",
"N  c #253D30",
"B  c #373C36",
"V  c #440201",
"C  c #4B0201",
"Z  c #440900",
"A  c #4C0A01",
"S  c #44020A",
"D  c #4C020A",
"F  c #4C0809",
"G  c #540201",
"H  c #5D0201",
"J  c #540B02",
"K  c #5C0802",
"L  c #53020B",
"P  c #5D020B",
"I  c #440211",
"U  c #4E0612",
"Y  c #4D1E14",
"T  c #640101",
"R  c #6B0102",
"E  c #630903",
"W  c #6B0A03",
"Q  c #64020A",
"!  c #6B010A",
"~  c #640A0C",
"^  c #720102",
"/  c #7B0202",
"(  c #750904",
")  c #780800",
"_  c #73020A",
"`  c #79010C",
"'  c #77090D",
"]  c #66110A",
"[  c #7E1600",
"{  c #620311",
"}  c #6B0312",
"|  c #640910",
" . c #780210",
".. c #442905",
"X. c #49390A",
"o. c #432411",
"O. c #442D14",
"+. c #442D1B",
"@. c #492D17",
"#. c #433316",
"$. c #4B3716",
"%. c #453A16",
"&. c #44341A",
"*. c #4D331B",
"=. c #4B3A19",
"-. c #5A3D1F",
";. c #54381A",
":. c #552718",
">. c #6B321E",
",. c #472B20",
"<. c #443323",
"1. c #4B3428",
"2. c #443329",
"3. c #573F24",
"4. c #562D2B",
"5. c #653A26",
"6. c #773E34",
"7. c #683D34",
"8. c #045502",
"9. c #055B00",
"0. c #085500",
"q. c #0B6003",
"w. c #126106",
"e. c #5B451E",
"r. c #62441F",
"t. c #6A4A1D",
"y. c #6A4816",
"u. c #744817",
"i. c #695010",
"p. c #5D4323",
"a. c #6E4722",
"s. c #6B4C24",
"d. c #6D4B2B",
"f. c #664C24",
"g. c #734B24",
"h. c #724B2A",
"j. c #784929",
"k. c #6E5125",
"l. c #72522B",
"z. c #7C5129",
"x. c #7B5625",
"c. c #6F4934",
"v. c #794B31",
"b. c #7C4B3D",
"n. c #7C5231",
"m. c #745F4A",
"M. c #645B5C",
"N. c #5F675A",
"B. c #68605C",
"V. c #73625B",
"C. c #615B67",
"Z. c #59666F",
"A. c #626664",
"S. c #67666B",
"D. c #820102",
"F. c #8B0101",
"G. c #810903",
"H. c #8C0900",
"J. c #83000A",
"K. c #890008",
"L. c #940201",
"P. c #9B0102",
"I. c #950409",
"U. c #9D020B",
"Y. c #970B00",
"T. c #840018",
"R. c #990014",
"E. c #A30202",
"W. c #AB0002",
"Q. c #AB020A",
"!. c #B10002",
"~. c #B60902",
"^. c #AA0413",
"/. c #963B06",
"(. c #A33C0E",
"). c #C70007",
"_. c #DE0301",
"`. c #DF0010",
"'. c #8D4A07",
"]. c #974602",
"[. c #9A4703",
"{. c #934D01",
"}. c #9C4B03",
"|. c #96440C",
" X c #9B470C",
".X c #9B4909",
"XX c #964B0A",
"oX c #8F5202",
"OX c #955202",
"+X c #9C5300",
"@X c #94530F",
"#X c #8E4C14",
"$X c #8F4E18",
"%X c #974B11",
"&X c #9D4C10",
"*X c #984615",
"=X c #A34500",
"-X c #A34C03",
";X c #A44A08",
":X c #A35203",
">X c #A65309",
",X c #A24913",
"<X c #A6461A",
"1X c #B14A07",
"2X c #814C2C",
"3X c #87432E",
"4X c #934129",
"5X c #8C5D24",
"6X c #865629",
"7X c #92592A",
"8X c #814834",
"9X c #815C3B",
"0X c #875737",
"qX c #955532",
"wX c #8A6036",
"eX c #974D42",
"rX c #855944",
"tX c #028B04",
"yX c #018607",
"uX c #009102",
"iX c #089002",
"pX c #09B403",
"aX c #02B905",
/* pixels */
"X C ^ H R ^ H Q T H R ^ X   ' T J ^ T H R R T R T .   R T K R T T T R Q { F.- c K R R G H R ^ T ^ T R - v / T ! C Q H T C V J.o ",
"  C { J ^ G R T E R T / . X ^ ^ R T K R E j h ~ ^     D.Q H R R E T T T T D.    H R T G H R R T T T Q . o ( T R T ! T ! R R ^ X ",
". C }.[.>X-X X}..X+XOXXX  o ` K T R T T T G G R R   . R T T Q H H T ! T H ` X . T T G C T T T R Q H Q .   P.L.H.D.L.L.) }.-XP.  ",
"O u B b 6 f s , V V * S X X / R T T T T T C V T / X . / T H E T T G V J T /   $ ^ R K C H T T ! T Z E . . P.L.^ -XK.H.L.) ^ )   ",
"  > V > V V L > Z R V r     R T H R T H T ! ! R T .   p.H E H _ W T ` R T }.  . ^ R P G T T H T ! V R O o L.F.P./ / L.J.-X[.E.$ ",
"  S : 5 P._.9 C 1 V M H o O R T T T T T T H H H R   . R ^ H T H H G G E ! :X    W T T H T T H T H J *X  . L.I./ OXU.D.L./ / P.  ",
"o #.M > ^ T d > V &.@.V     R A K T ^ R H H T ^ R   X H T E R H C C C G ! XX+   >.T R H T T T T } ! t.@ X W.E.~.L.Q.).P.P.!.F.O ",
". O.y u G k S 0 8 <.> 7 # X / T R T H T T R R H ^     ).Q.W.E.P.P.E.E.P.U.R o . 3.K T T T R T T T V g.  . o .           .   X   ",
". z *.#.%.*.%.$.$.$.;.! X . ^ R T T T T T T R T R   . .   . .       . o     o   d.T ! T Q ! T H ! C 2XX     d C . o     X > Z . ",
"  H T K H T ^ R ^ R T / .   J.E T T T T T T T T ^ X       X       X   X         h.H H T H ^ V R H A eXX   c < X X   .   . 1 * $ ",
"+ ^ T W H ! R R H _ H Q   o F.H T T T T T T T T !   . H @.j &.+.g d 3 g 1.g + X s.R H T T R C R R V 0XX # D . V R H ) : X X V X ",
"  E G H C Q G H T R C H     / E T T T T T T T T / . X H ! C C G G H R T T H . . g.! ^ H R T P T T R rX  X X 2 > > > > .   : V   ",
"  ^ H T C ! T R T ^ C / .   ^ H T T T T T T T T R X   Q H T R C T Q R R R T     t.T ^ G T R O.T T R M.+ o . S   X . S   o   D   ",
"  / T E G H T R K P Z R     ,X! T T R T T T T T $X@ . / E H C W T T E H H ! . o f.T C Q T T 9.T Q R S.    4.k g e o.s s t p T . ",
"  ' R W H H T T T ! G *Xo    XT T T T T T T T T / o % ! H ! Q H T Q T T T ^     d.^ Z Q T K tXT T H C.X   ! H T R , C V C C ^ X ",
"  ;.E H T R T T T Q T u.X X -XT T T T T T T T T R +   R E ^ C T R T T T T ^ X   j.T T H R R pXE T T S.    T T T T Q C P H K /   ",
"  7.H R T R T T R G G c.o X }.R T T T T T T T T ^ X   F.E.P.L.P.L.P.L.P.P.R .   g.T C T ! E yX! Q R 6X+ . T T T T E R T H H ^ + ",
"  6.H T T T T H T R G 2XX . / ^.W.E.W.E.W.E.W.W.R . . ( F.F.{.D.P./ D.%X) / . + u.Q C T Q G 9.T H T 5X    T T R H R T ~ T T ^   ",
"  h.T H H R H H R H V 7X    . X                   . . F.L.D.}.R.( L.L./ P.T +   *X! C H R ^ z T T Q x.o   R ! T H H R G ^ T R . ",
"  g.R P T R G T T T D 5X  o @   .     .       . +   o P./ Y.F./ E.J./ >XL.R   . R T R R ! T V T T W h.o . T R Q E E T T H T R   ",
"  j.H ! T H H E H T ! 9X  o w 5 a i t a a i t a r   . P.L.T.oXI.^ E.F.D.^ /   . / H G P H R H D T T z.    W R H T H T ! E H 4X  ",
"  t.H ! T H ..T R H T B.  . C H T T T T T T T T R O + P.H.F.D.P.L.J.D.@XL.)     ^ W T P H E H H T T &X. . 5.T E R ^ T ~ T E z.  ",
"  s.T G H R w.T T H R S.  . V R T R T R R T R T Q O   ) H T } H H T R H T *..   / R T T T R R Q H T (.    p.T Q T T T G T T g.. ",
"o j.R C H R yXT R T T N.  $ Z T T T T T T T T T ^ o   ` R R C T T T ! G P !     T H G T E ! H T R H /     f.T C T K T Q T T z.  ",
". b.H H ^ H pXR T T ! N.X   G T R R H R R H R T ^   o G.R T H ! T R T K T ^     R T T H T R T V T H J.    d.T T H H T R K T v.. ",
"  k.T G E E yXT P T R 6X% O V } T T K T R H T T R +   / R T H T T T T H H R     R R T T T T E T T T /     r.T T R T R R T G l.  ",
"  s.T V H T 0.T T R H 6X$ . V T G T T R T R R H !   . H.T H Q T R T T , T T   . ^ T T ! H H T R T W /   . r.! T T R T R R C k.  ",
"  #X_ G T Q <.T H ! H 6X    A T R R H H H T R R R . . ^ T ! E T H E T ~ H T   X R R T T R T E ! T T ^     s.R T T T V T T G 6XX ",
". R ! H ! H > Q E ^ H z.  O C H T T T R T H H T ^   o ^ T R T T T R T Y R ~   . ^ H H T R R H > T T [ o   s.R H H H G T P G qXX ",
"  ) T H T H { G S H ~ c.  . C &X-X}.=X.X}.}.{.-X<XX o / K T R H H T T H T R     -.] R T T T R ` Q R /.o   s.R E T T R T H H rX  ",
"  _ H H H T T H Q T R {.o o X 3 < .       X . D ,   O ^ T H H H T T T V T ! X . ( H H R R T H Z T T ;X    t.R H T T ..Q E T V.  ",
"  ^ T T Q ^ T T ! T T -X.   = > . X   .       : = $ . ^ R J :.T H R H T T ^     ^ R T T T H G C H R }.o   s.T G C R 8.! H R A.  ",
"  R T C T T K R H R R /     1   > H T _ : . X X > o    .T H 0.T T T T T R R     R R T H G G L K C G {.o   v.T G H H tX! H P S.  ",
". T ! R K H R C C H / /     X d V C : V . . . : >     ^ G T iXT T T T T T ^     ,XT H T T H H R Q H }.  X l.T T J P pXP R H B.  ",
"X ^ T H T T R H H E T !   . . >   . X < O     . C     ) H R aX! R T T T T ^     {.H | T T T Q T R ^ _ .   f.H C G T tX^ R T 0X  ",
". W T T R ! H R ! ^ H J.X o 1.j +.a q k y i y a R o   ^ Q R uXR T T T T T R     +XH ! T T H E H K H R     v.T L C T 9.T T { 6X  ",
"  R T T T T ^ H G R H D.X o ! T H T G G G C G V ^ o   / T T 8.R T T T T R ^     |.Q T R R T T T R T ! X   :XT C L T x T T Q n.  ",
"  / R T K T R Z G E H G.. o H T T T H C C T H T R     J.R E +.T T T T R T ^     L.U.W.W.E.E.W.W.!.U.^     ^ ! H P T U R H Q 3X  ",
". ;.Q ^ K R R R R R T  X.   H R T R H T H T R T R     / H H ~ H T T T T T ^     X   X   o   .       o     / H P C Q V K Q T 2XX ",
"X ( T T H T R C Z T ! {.  X ^ T E T R K T T R E T .   / P R R T T T T T T R         . $ o         X   O   ` G T T T R T E T ].  ",
"  ^ T K R H C D C T E }.    R T T T T H H H T H T   X [.E H ` P T ! T H R |.+   y p i t 0 0 8 a 8 p j .   ^ Q H T H T R Q T =X  ",
"  Q T Q R G G T ! V V }.o   R ! T T T T T T T T / o o -X! T H T R K T T H ( O . G T T T T R T T T H R   . R H C H T T G P R (   ",
". ^ W.Q.E.E.E.W.W.Q.E. XX   R ! R R R T T R T T  XX   {.Q R K T T E ! R Q R X   C T T T R R T T T H / X X ^ T R P H T Q H R /   ",
"$ X           .     O .   X -.R T T T T T T T T f.  X 1XT H H ^ T T H H R ^ o   C T T E R T T T T R R     R T ^ T T T H W T )   ",
"  . .     . .   X . .   . . e.T H T T T T T T T z.  X ) W.W.E.W.E.!.W.^.E.^ .   C T T H H T H T R T R   @ T Q H R T E H R T ) o ",
"X t k g q s l w p g y l   . y.Q H T T T T H T H 8X        + +     @       X X . G T ! T R R R T E H R X X ^ E T T T R P H R /   ",
". P T Q E H T H T T R / o   t.T H T T T T T T H z.  $ X   . O . o .       o X . C T T H T T T H R T ^ .   ^ H R P ! T H T R )   ",
"X G H H R T R T Q E G ^ +   a.T T T T T R T R T 6X    / ! R G R E T K Q R T   o C T T H T R T T R H ! X . 5.H R T H Q R Q T =Xo ",
"  C R T T E ! T H T E R     h.! , H ! H H T T T 7X.   ^ Q T R H T T H T T T     D T R T T H T Q T T D.    5.T P T R T T T _ OXo ",
"  D Q T H H T Q Q ^ T R   o t.E T R T H T T T T rX. X R T T T T T T T R T T     C *X-X[.oX1X=XXX+X{.#X. X T ^ T T P T C R H }.. ",
"X K T ! ~ R R H ! R H ^ . $ h.H , T ^ T T T T T M..   ^ T T T T T R H T T T     . p >   +         S , .   W H T T Q T S T H -X. ",
"  C R H T R T E K H H )     g.T H R T Q R T H T Z..   R T T Q T T R T T T T     c <     o   . o   S 7 o   ^ R H T H E D T E OX  ",
". G H P Q T R Q K R } R   X a.T K T T H T T T R Z.. . R T T H T T R T T T T     1.j O.k p w q w w 9 ^ o o ` R T T T H C R T ].  ",
"  S H T R H T K T R ! /   o h.! q K T H T R T T A.    ^ T T T T T T H T T T     T H E Q C F Z G S C ` X X T R T ! H L Z T T >X. ",
"O A %X}.=X+X}. X.X}.oX[.X o h.H T ! H T R R H T m.    ^ T T T T H T H T T R     ` T R G R T V C T T ^   . R ! P T T L J H R #X  ",
"  n B b m u *.> V > 4 S   . n.H V T ^ T T T T T 9X    / T H R T H H G T T T     K T T R T H ^ H T R T   . P.P.L.L.E.^ F./ J.G   ",
"o > > C > > L V > R > 1.    i.! T T T T T T T T 0X. o / ^ E T T T H T T ! R     R R T T T R T T R H ^ +   X .   . .         @ $ ",
"X V C 3 L.`.e , V > +.V o   {.R T T T T T T T T z.    J.~ T T Q R T T T T R     R T T T T T H H T T ^     +.,.g a h g p f 3 R X ",
"  M N 1 _ T 7 I : <.<.G + . &XH T T T T T T H H 6X  . {.V H R R R T T T T R   . R R T T T H H G E H ^ . . K H T T G V C C C R X ",
"  2.q 2 C #.C 0 i ..> t .   R H T R T T T T T H n.o . }.| T H T G R R E H ^ .   R T T T T T E H H T T     H E T ! T V H E ! ! # ",
"  $.X.%.%.*.;.X.$.$.3.^ .   / ! T T T T T T T T j.    <XT T Q T C T R R T ^   X R T T T T R ! T R T T     T E T R E H T H R T . ",
". R T T A H R T R R H R   X W T H T T T T T T T .X  . +XR L ! R A K T R T ^     R T T T T T ! T R T R     ^ T _ H T ^ K T ! R   ",
"  T T T ^ T ~ T ! E T / .   R T H T T T T T T T -Xo   OXC ~ H G Y Q T C V R O X R T T T T T T H T T ` X   R K H H T R G H T R   ",
"  T T G Z R K R T R > R 6 * ` T H T T T T T T T / - - g S G C L Z C G C > H ; 4 ^ T T T E T H G T H ^ = 4 / R T ! R H R H R ^ . "
};
