/* XPM */
static char *_957873658f9499aaf41187318587dc7nAUvyZWBHO84d6Ph[] = {
/* columns rows colors chars-per-pixel */
"64 64 185 2 ",
"   c black",
".  c gray1",
"X  c gray2",
"o  c #060606",
"O  c gray8",
"+  c #151515",
"@  c #161616",
"#  c gray9",
"$  c #181818",
"%  c #191919",
"&  c gray10",
"*  c #1B1B1B",
"=  c gray11",
"-  c #1D1D1D",
";  c #1E1E1E",
":  c gray12",
">  c #202020",
",  c gray13",
"<  c #222222",
"1  c #232323",
"2  c gray14",
"3  c #252525",
"4  c gray15",
"5  c #272727",
"6  c #282828",
"7  c gray16",
"8  c #2A2A2A",
"9  c gray17",
"0  c #2C2C2C",
"q  c #2D2D2D",
"w  c gray18",
"e  c #2F2F2F",
"r  c #2E302F",
"t  c #312F30",
"y  c #2F3130",
"u  c gray19",
"i  c #313131",
"p  c #333132",
"a  c #323232",
"s  c gray20",
"d  c #343434",
"f  c #353535",
"g  c gray21",
"h  c #373737",
"j  c gray22",
"k  c #393939",
"l  c #3B393A",
"z  c #3A3A3A",
"x  c gray23",
"c  c #3C3C3C",
"v  c gray24",
"b  c #3E3E3E",
"n  c #3F3F3F",
"m  c gray25",
"M  c #414141",
"N  c #404241",
"B  c gray26",
"V  c #434343",
"C  c #444444",
"Z  c gray27",
"A  c #474644",
"S  c #464646",
"D  c gray28",
"F  c #474948",
"G  c #484848",
"H  c #494949",
"J  c gray29",
"K  c #4B4B4B",
"L  c #4C4C4C",
"P  c gray30",
"I  c #4E4E4E",
"U  c gray31",
"Y  c #505050",
"T  c #515151",
"R  c #535351",
"E  c #505052",
"W  c gray32",
"Q  c #535353",
"!  c #515254",
"~  c gray33",
"^  c #555555",
"/  c #565656",
"(  c gray34",
")  c #5A5957",
"_  c #585858",
"`  c gray35",
"'  c #5A5A5A",
"]  c #5B5B5B",
"[  c #5B5C5E",
"{  c gray36",
"}  c #5D5D5D",
"|  c gray37",
" . c #5F5F5F",
".. c #606060",
"X. c gray38",
"o. c #626262",
"O. c gray39",
"+. c #646464",
"@. c #656565",
"#. c gray40",
"$. c #676767",
"%. c #686868",
"&. c DimGray",
"*. c #6A6A6A",
"=. c gray42",
"-. c #6C6C6C",
";. c #6D6D6D",
":. c gray43",
">. c #6F6F6F",
",. c #726D69",
"<. c #736F6C",
"1. c #75706D",
"2. c gray44",
"3. c #717171",
"4. c #727272",
"5. c gray45",
"6. c #747474",
"7. c gray46",
"8. c #767674",
"9. c #747577",
"0. c #767676",
"q. c #777777",
"w. c #7C7974",
"e. c gray47",
"r. c #797979",
"t. c gray48",
"y. c #7B7B7B",
"u. c #7C7C7C",
"i. c gray49",
"p. c #7E7E7E",
"a. c gray50",
"s. c #808080",
"d. c #818181",
"f. c gray51",
"g. c #838383",
"h. c #848484",
"j. c gray52",
"k. c #868686",
"l. c gray53",
"z. c #888888",
"x. c #898989",
"c. c gray54",
"v. c #8B8B8B",
"b. c #8C8C8A",
"n. c #8E8D8B",
"m. c #8D8B8C",
"M. c gray55",
"N. c #8D8D8D",
"B. c #8E8E8E",
"V. c gray56",
"C. c #90908E",
"Z. c #909090",
"A. c gray57",
"S. c #929292",
"D. c #959595",
"F. c gray59",
"G. c #979797",
"H. c #989898",
"J. c gray60",
"K. c #9A9A9A",
"L. c #A5A5A5",
"P. c gray65",
"I. c #A7A7A7",
"U. c #AFA6A1",
"Y. c #A8A7A5",
"T. c #AAA6A5",
"R. c #ACABA7",
"E. c gray66",
"W. c #A9A9A9",
"Q. c #AAAAAA",
"!. c gray67",
"~. c gray68",
"^. c #AEAEAE",
"/. c gray69",
"(. c #B2B2B2",
"). c #B4B4B4",
"_. c #BBBBBB",
"`. c #BCBCBC",
"'. c gray74",
"]. c gray75",
"[. c #C0C0C0",
"{. c #C1C1C1",
"}. c #C3C3C3",
"|. c #C5C5C5",
" X c #E4DCD9",
/* pixels */
"K j j o.] , % : : : % : % % , : % , % , : % % 3 : , % : : : : , : % : : , , : : : : % : : % % : % % % , % : # : : % W B U K q U ",
"B C W U ( % g C g K g b W g j a a 3 q B , , 7 B U % 3 q q a B q q U 3 : U 7 , 7 7 q g , a q q : K U : : b a q q g j } ( g q ( b ",
"j B q K ( # j B j g j b j W b b j j j b W ( b W e.b j ] b B a U b C o.( C ( ( b +.K } ( K b } B :.c., g 7 B C U K :.u.j g j K j ",
"a a } ] q : a C b B ( U B b } a a U W U o.W W o.J., b U o.o.( ( %.U } 4.K } } g K b b B W U o.b ] o.q q K ] b W %.] ( b b b o.q ",
"q g W C 4., B q g U q b b b o.b +.j W %.j g B K u.q B U K e.C ( ] K ] o.W } } %.] K b C +.U C b :.( j g B g B b b :.M.b j } g a ",
"g g ] +.} % b b K C b g U b b q b b K C ( C b +.e.q W a j ( B U ] B } W ( C ( B U U 7.( b j W U 4.:.7 j U W ] K K 7.] b b ( b j ",
"W K ( C ( : b U U ( K C b b j B B b U ] } C e.U K 7 b B B ( g ] W b U +.W } b W } U ] ] K K U C 4.%.C q K ] } ] +.] 4.o.j C C K ",
"g U : U ] % j ( b W b b C K b b ] U W K +.C K K } q b B b U U U U } ] ] K b U ( ( W b W j b ( U :.4.a , ] b K B U } ] b } } K j ",
"B a q K 4.: g U K b K B q K b B g g U +.b K ( U ] C +.4.C U U } o.7.U e.4.B , } K ] ( b b C C K e.} b b B j ] U +.c.4.j C K j b ",
":.u.Z.e.] % C q a q a j K B j B U o.q B ] U q u.} 7 :.e.7.] ( 4.] u.e.Z.} U 3 B W W } ] o.W K U s.:.a ] C :.] 4.B s.W.:.] ] e.4.",
"} 7 q : B : 3 3 3 7 3 K K B K W ] j ] g K W K :.u.q K %.W } o.W } ( B K , , % , j b j : ] ] ] ] c.M.j C K ] }.4.( o.7.g ] } e.} ",
"  X       : : a a : 7 ] B g b j g g W b ( B ( } 7.% , % : % : : : , % % b a ( j W K ( +.B b U +.e.Z.3 j j g j j j b : , :   X   ",
"C j B U K b +.K } % q K B b B b j W j b b b C } :.% , b :.W ( W g o.U 4.K q b +.W W K W W C U :.} c.C , 7 q 7 3 , 3 7 3 7 a K B ",
"b C C b K ] +.a ( : q B b C g B B U W ] B K ( K o.% q g b o.U } b b B W o.q b U b K B U K } W B 4.(., 7 g B g q q g b B b j a b ",
"B b B ( ( o.j W C 3 3 j j W C ] B b o.j K ( K 4.c., a W o.( B } ] j ] 4.(.j B b } B b W ( K K j u.:.3 g 7 B W ( g K W U o.g U B ",
"K g b K b +.U C 4.j 7 b U U b g q B U j b W C +.u.# j B C ( ( b b ] K e.M.b b U } } j B K W K ] u.u., 7 a ( B b o.b W j j a B U ",
"K %.K B K K U C 4.: g K j j W K b ] b b j j W 4.4.# 7 a b ( B W o.W ( :.e.j U K g ] W B B U g o.] } 7 a a b } ( 7 B g b K ] b U ",
"U K o.C B } 4.K } , a W C B g W q B ] g C C W +.] : a j U ( C ( ] ( b 4.l.q j a U u.o.W B b W U } u.: q q j j j ] j ( B K o.j K ",
"j W o.o.q ( g } q , b K o.U o.o.o.K o.M.b U :.} s.# 3 C W +.( B ] W W ( :.q C g C j ( B b b o.U M.7.: 7 g b } B B j ( } C b W a ",
"b 7 W o.U :.} e.3 q W 4.] M.:.C ( ( c.( ] e.o.:.l.: a q ] j U +.b b C } Z.j a K ] +.( } 4.] U K 4.:., K K C } ] B ( b B j U j W ",
"j B K b b W U :.7 j ] q K U o.} C ] U K ] U ] U 4.: 3 B } a ] ( b W o.} Z.a K K J.4.K %.4.j o.+.4.4.# C ] K U C W ( U W j K B K ",
"j b b ] B W K o.# : , : , % : % : : % : % : : : % : 3 g ( ] B 7.b U K e.K q 3 7 : 3 , 7 % , , % % % , a W C ] W U B g j B ( ( b ",
"o.B ] ( U C o.4.7 , 3 , % , % 3 : 3 , % 3 : # , : q q b j q ( ( B a B K } 7 , 7 q B j : : % , 3 7 : 3 3 ( o.K j } U o.U B :.a ( ",
"W C U C b o.+.e.a , 3 a a q g 7 7 : a q K 3 C : U q j B K b U g B j U o.4.3 g K a q b q g 7 a a q U K C W W } ] U a W } W B B o.",
"j q b B W } %.J.3 7 b B a b j g K g g j g U W b q j j c.j W u.3 ( g b U :.q a ( b } ( j q j B j ( U b u.} W } +.+.K } u.P.%.K o.",
"b g K ( g } o.U : 3 q U j j B } j g b B U B C q a B } +.K b b B ] U U C u.q b b %.W a b j g j b j +.( W :.b } } B W b B g ( b C ",
"+.b C U g } C K 3 3 b W ( g b a C j b 3 j b +.b C a C W ( B W g U b a o.}.b K b g U W a j b q ( ] K W W o.U U B W ( U U g K B W ",
"W C j K o.K u.U 7 q q q C a K B ( j B B q ( C j } j ( M.U C b B W b b U u.q U U } } C j U U B W b j ( b U C } W U b g j B ( U b ",
"W j ( B B U o.s.7 7 b ( U b +.( j C B K B K U W U a ] ~.C C B b B ] +.K o.7 a ] j C C W b ] } b U o.+.( ( } U j ] U +.U j :.B W ",
"a U j ] W C ] ] 3 q b K W b C B K } C K W B U g U B u.e.:.Z.e.W o.} ] u.P.B B ] } K ( U ( b W U U U o.( K U ] } K j U } ] b j +.",
"] U B +.%.a e.7.7 7 q C B U B j B b B U g W B } U } C ~.( +.s.:.M.c.o.s.M.q B o.u.u.C +.} K C ] %.%.o.o.U K } o.+.K o.e.W.4.K } ",
"4.] U g } } ( ] 3 q C B ] K j C K K j 7 B U g b } ] u.u.: : % a 7 : q B C j q : e.} ( 7.( ] } } M.( u.] } ( :.4.] ] :.o.4.u.B 4.",
"7 3 7 7 3 : % : , # % : % # , : % % : j 3 , a q 7 q , a q 3 j K F q b g K U K U = : : : % % : : # = : : : = , % : = q B a , q 7 ",
"B B C C 7 , 3 q q g a B q a q 3 a a B } q 7 a K b j q q B K ( g >.9 K U  .] K $., 3 g , q g 3 : a t q 3 C 3 t 7 C } u.a W b a B ",
"B B K K 3 a B q j g b B U g j C j B g j W } b b ] K W W U B C ] M.c W Q } ( ..M.j a C C b j W C q c q Y d a B b 4.W.|.g { j j b ",
"7 W W q 3 : q j g } b B g } g b C W U a ] U W ] +.g } U } o.K e.M.x U :.] U C.7.q g C B U W W B W C ] ] o.c j ] M.M.`.B a B j b ",
"g b K 4.3 a g g U a b g b %.g o.b B K u.b j b b b ( } j b } ] } T.t B } W +.n.R.g B B b ( U Y c K C U C ] b b g 4.e.W.j C ~ d c ",
"j o.o.C : 7 a b U g g B j b a a j g K ( U b b K ( B o.B b U U :.P.a b ! U W <.w.a b 7...W B B W K U K K } U ( ( 4.c.W.a a m j W ",
"W B K K 3 a B K } U B B g g B B K K b K o.U s.C 7 ( b b j } j c.n.a r 7.U ) <. Xg U Y C K K K G Y U o.K ] ] ( ] c.M.o.W j b W 7 ",
"B 7 C K : 7 b B b j B C C b b ( B C ( W o.U K B U ] ( B ( U W } b.1 B ] W A <.U.q C b } b B W U K +.F b l.m B K 2.W.e.K ( b C 7 ",
"q 3 K U % q C C b U j b B B B j W j U o.b U +.B j ] +.W B K U 4.c.j K } +.B q }.q B Y C K K b K g b o.U ] o.F m C s.u.g j j b U ",
"j B 7 K : b q C B b g K K j B W ( U 7 B ] B q %.b B ( K K b ( M.4.a b U K U b c.a n } Q o.b U B C G ( B W j %.] u.W.7.b ( b g 7 ",
": % % q % 7 q g b j b U C j K ( j j C B B K ] ( ( q 7 b a 7 b K Q : 3 , # X : % : a B g ( L W o.] } W +.j ~ ( B ] !.L : # ,     ",
"] B K 4.q q 7 b B b } b a j q j ] q U B W U ( 4.( : : % % % , % * : : s a c Q t B K ( a C o.L ] K ..W o.K j J.W ( W ( % b q ] ] ",
"C b ] U 3 3 a g B K U B C B B B j ] j b b %.U } o.# B b %.] b W V { K B b U W b ~ 5.c.j K W C o.B ( 2.] U ( B ( C o.7.U b C b W ",
"W a C U j b 7 g g C C j b b b B j b ( ( U b ( ] ] , U C ] ] ] %.b h Q b q ( { a W M.M.a q b o.a K ] b } W d W K M.`.] 7 q e.a U ",
"B b } } a q 7 b B B a b U U U j K U u.b U C K u.4.: B %.U U W W } V b W {  .D } } 2.u.q B ( b B ( B B b U b ( +.( W.7.j m e.K j ",
"g b ] U j 3 a K K B W ( K K j K b j ( b K C K :.+.% } } j } ( b B W { }  .W  .] ( b.m.b U B F } U b b B b K B m M.M.( > B U g U ",
"] K K ] q 3 a } j U K B j ( ] b K +.U b j g ( J.} # U K g ( B ] } W ( K U } o.K } W.c.q 7 ( B W K j W } K U ] W ( P.( : 7 U B } ",
"o.] %.U g j a B j j U j b b U q B B W b b B ( 7.] : ] U B W U W ( U j U b b ( B b M.} b ( ( ( K B W K ( U b U g c.M.:.g K %.K B ",
"j K ] 4., 3 7 b } U K K W K W B U b o.).+.j o.s.o.: C K ( +.( C ( %.] U C ] U C ( e.M.7 7 U ( U o.U W K U C } b } e.4.q 7 W %.B ",
"j K u._.q g q ( } e.] 7.] D.4.( ] W D.W } :.K c.Z.% o.K 7.] } o.C U 4.K e.] W 4.} o.u.7 C b B } j U K ( K K W } } +.( q a ] o.o.",
"( W u.Z.% , 7 a b } } K e.W W +.C +.K K ( ] ] U W # } ] U 4.} ] %.K K :.K :.] U :.4.( b ] U ( } ] U %.+.4.o.U o.:.}.+.a ] } :.l.",
"q g b B g q a b : # , , b : : % % # % , % % # : : : 3 b C ] o.} b ( :.] U C ( K U } l.% % : : % % : : , % % :   , W W , 3 7 B C ",
"] a U U K o.:.7.: 7 7 a % : : 3 3 : 3 , , # q , # q : 3 W g ] K ] W K b U b B :.7 ] K % , 7 q a g , = 3 U b B 7 C K M.a 7 a a C ",
"B K C j U +.4.e.% q B a B 7 a 7 3 , g 3 B q j % U 7 7 3 U j U B ] } ( W K U } M.a g :.: 7 j g b q B B b b o.u.( } 7.c.% U K q W ",
"j a j b W U M.e.: b K j a j ( b g 7 j g U j W B a b a B } B ( ( b B U o.} ] ( 7.B :.u.: , j b j B g b o.} K ( a ( } 4.a C B K :.",
"b B C K b o.4.K : B W C ] 7 b ( W q b b B j W q g U g j ( a B B W ] U g U K U ( ] } U 7 , B a a : g W ( +.b W ] ] +.`.a 7 W W U ",
"] j U ] b W ] K % q B U K b a B b b b a q q o.g K B b , } B ( 7 a B j K %.b W b j +.} # : a a K a U ] ( c.B ] K } s.M.% C g j b ",
"( C b ( } U M.K : B b g ] q W j B j b B a K K j W a U W j b ] j b B K C W K U W ] 4.4., 3 U : g o.j K B C K } +.b 7.~.3 q B K b ",
"K K K W j } M.:.  j b ( K a U ( C ( W C U ( B } U ( W +.B C b b b ] ( C j B b ( U } ( a , W ( b j +.o.] } ( +.W U 4.l.q K ] K q ",
"K ( g :.] U c.4.: K +.U 4.o.] K o.7.U K o.( U K ] } o.%.7.7.7.K K K } } u.C +.] :.} 4.a K K U } %.4.4.o.( } %.] K } W.a C } K W ",
"K ( C ] 4.g c.4.: ] } ] ] :.:.] M.7.] 4.K :.:.e.u.l.s.s.e.7.%.:.c.u.u.u.] K +.7.M.c.u.g g C K o.] U +.u.+.} C o.+.D.M.j q U +.} ",
"W b ( j U ] K U % U C b ] U j B B C b j b K j j ( } W C 3 U a W ( B 3 a 7 : B ( W g g j , U K a b b ( b U a K B g j :., b q o.( "
};
