/* XPM */
static char *_c6710d9a02243edd4c647d61a008da6rPbi09kJcWD91rZs[] = {
/* columns rows colors chars-per-pixel */
"64 64 254 2 ",
"   c #171D0D",
".  c #151D14",
"X  c #1B1B15",
"o  c #151D1B",
"O  c #1C1C1C",
"+  c #1B1518",
"@  c #0D1F15",
"#  c #23161D",
"$  c #231B1C",
"%  c #261717",
"&  c #341E15",
"*  c #341D06",
"=  c #0C2419",
"-  c #132214",
";  c #192114",
":  c #14221B",
">  c #1C211B",
",  c #11260B",
"<  c #2C280B",
"1  c #36280A",
"2  c #2C3008",
"3  c #39340B",
"4  c #2C2313",
"5  c #292716",
"6  c #332314",
"7  c #352D14",
"8  c #3C2C14",
"9  c #38281A",
"0  c #3C3414",
"q  c #3B331A",
"w  c #393817",
"e  c #1B1C22",
"r  c #181B25",
"t  c #251622",
"y  c #231A22",
"u  c #291A27",
"i  c #301C25",
"p  c #132322",
"a  c #192327",
"s  c #0E2323",
"d  c #212229",
"f  c #3A2F24",
"g  c #5C0204",
"h  c #431E16",
"j  c #640101",
"k  c #6C0102",
"l  c #66020A",
"z  c #730102",
"x  c #7B0101",
"c  c #7B0208",
"v  c #680011",
"b  c #780013",
"n  c #452B0D",
"m  c #49360C",
"M  c #452B16",
"N  c #433314",
"B  c #4B3414",
"V  c #443B15",
"C  c #44331A",
"Z  c #4A351B",
"A  c #44391A",
"S  c #4C3B1B",
"D  c #4C3D17",
"F  c #52351B",
"G  c #543B1C",
"H  c #583918",
"J  c #523412",
"K  c #633C1C",
"L  c #473A23",
"P  c #5B3D21",
"I  c #553B26",
"U  c #643D25",
"Y  c #613D31",
"T  c #49431C",
"R  c #57421C",
"E  c #56400E",
"W  c #5C4223",
"Q  c #564524",
"!  c #4C4524",
"~  c #634526",
"^  c #664019",
"/  c #830203",
"(  c #8C0300",
")  c #8E0904",
"_  c #940201",
"`  c #9B0101",
"'  c #990508",
"]  c #950111",
"[  c #830019",
"{  c #A30101",
"}  c #AB0102",
"|  c #A5010A",
" . c #A80906",
".. c #B30101",
"X. c #BC0202",
"o. c #BA0409",
"O. c #A80413",
"+. c #C30102",
"@. c #CB0102",
"#. c #C20407",
"$. c #D30201",
"%. c #DC0101",
"&. c #DD0209",
"*. c #E40203",
"=. c #EB0202",
"-. c #E80606",
";. c #F40101",
":. c #FC0201",
">. c #FE0209",
",. c #F80409",
"<. c #F90115",
"1. c #F91C1A",
"2. c #F6100D",
"3. c #FD231A",
"4. c #F72417",
"5. c #ED2211",
"6. c #FC1C26",
"7. c #FC2323",
"8. c #FA2428",
"9. c #E82627",
"0. c #8E4B01",
"q. c #9C4601",
"w. c #954C01",
"e. c #9C4B02",
"r. c #9C4B0A",
"t. c #984706",
"y. c #8C5100",
"u. c #955202",
"i. c #9D5102",
"p. c #955109",
"a. c #9B500D",
"s. c #985015",
"d. c #A24502",
"f. c #A34B02",
"g. c #A74A07",
"h. c #B34D02",
"j. c #BC4D03",
"k. c #BC4E0C",
"l. c #A45301",
"z. c #AD5402",
"x. c #AB5A01",
"c. c #A85608",
"v. c #B45401",
"b. c #BA5301",
"n. c #B35B01",
"m. c #B4540A",
"M. c #BC530B",
"N. c #BA5907",
"B. c #B65612",
"V. c #B14F12",
"C. c #AF6100",
"Z. c #C25403",
"A. c #C14E02",
"S. c #DD6C01",
"D. c #D96A03",
"F. c #DC7202",
"G. c #E36B02",
"H. c #EB6B03",
"J. c #E76706",
"K. c #FD6E03",
"L. c #F46C04",
"P. c #E37203",
"I. c #ED7301",
"U. c #ED7B00",
"Y. c #EE700A",
"T. c #F47501",
"R. c #FD7501",
"E. c #F47B02",
"W. c #FC7B02",
"Q. c #F4750A",
"!. c #FE740A",
"~. c #F47B0A",
"^. c #FD7B0B",
"/. c #FE7413",
"(. c #FD7913",
"). c #FE7A1B",
"_. c #F16D10",
"`. c #FF7422",
"'. c #EF8301",
"]. c #F38102",
"[. c #FD8201",
"{. c #FE820C",
"}. c #FDAD01",
"|. c #FFAD0B",
" X c #F7AB05",
".X c #EEB703",
"XX c #F5B401",
"oX c #FDB401",
"OX c #F5BB02",
"+X c #FDBB02",
"@X c #FDB30B",
"#X c #FEBC0C",
"$X c #F5B90B",
"%X c #FDAD11",
"&X c #FEB312",
"*X c #FEBC14",
"=X c #F7B914",
"-X c #F8BC20",
";X c #F5C302",
":X c #FDC303",
">X c #F5C30B",
",X c #FDC30B",
"<X c #F9CA06",
"1X c #F4C413",
"2X c #FCC312",
"3X c #FBC31C",
"4X c #FBC615",
"5X c #EDCB0A",
"6X c #F7ED00",
"7X c #FEED02",
"8X c #FDED0B",
"9X c #FCE40E",
"0X c #EDFB01",
"qX c #EDF500",
"wX c #F5F401",
"eX c #FDF402",
"rX c #F5FA01",
"tX c #FCFA01",
"yX c #FDF40B",
"uX c #FDFA0B",
"iX c #F5F809",
"pX c #FFEC13",
"aX c #F4E21E",
"sX c #FDF412",
"dX c #FFF817",
"fX c #EFEC07",
"gX c #FDDC2C",
"hX c #FADA27",
"jX c #FDDC34",
"kX c #FDDE3B",
"lX c #F8DC33",
"zX c #FCE32C",
"xX c #F9E629",
"cX c #FDE233",
"vX c #FDE23B",
"bX c #F7E739",
"nX c #EBE328",
"mX c #FCE243",
"MX c #FAF96C",
"NX c #F4FC74",
"BX c #FBFC74",
"VX c #F4FD7B",
"CX c #FDFC7C",
"ZX c #FAF578",
"AX c #F6F66C",
"SX c #FCFD82",
"DX c #FCF886",
"FX c #EFFF84",
"GX c #FFE5BF",
"HX c #F9DCCA",
"JX c #FEDCD8",
"KX c #FDE3CB",
"LX c #FAE3D4",
"PX c #FFE9E1",
/* pixels */
"R.Q.H.P.G.G.W.W.XXgX7XM.` b J G F C T N 3 6 O e $ - : t = l < 4 1 j v = # O O # 3 B _ $.H..XeXeXeXCXqX8XkX#XoX$XE.R.!.R.!.W.R.W.",
"W.I.G.g.N.v.!.T.|.VXE.X.j V I 3 N H S G M M ; X e O $ O % j z * < l - % : # = O 8 S c } :.R.oX7XKXSX8XtX2X:XoXW.R.T.T.W.E.R.W.W.",
"I.b.z.v.V.z.R.R.xX,X=.c J C 7 I D R T G A 4 v - # a o y X , j v v ; X O t O O > < M W _ +.n.U.,X0XwX7XzX#XoXW.^.!.!.W.W.[.W.R.~.",
"z.j.e.l.d.n.E.oXVXv.| A m 2 2 N G g x U U M 7 % X X O O $ X + = X X X O # e : t 5 L J { +.1./.OXeXVXeX<XXXW.E.!.R.W.R.T.T.!.L.j.",
"e.e.u.4.a.b.[.=XbXX.m q 4 8 L I c ` { ` j Z 7 9 : o O e O $ e # e O O # y : % X 8 q R c } 3.R.<XDXeXeX#X}.^.E.R.W.W.T.W.^.D.x.v.",
"8.6.:.:.9.k.R.zX!./ Z 4 < 9 N ` X.:.:.X._ H 2 q % o r o > e $ : O O : O e O O g 8 n Q _ o.t.Q.:XHXyX$X+X|.R.].!.E.W.!.D.n.b.c.g.",
";.:.:.:.>.m.T.rX;.I 2 j 9 J _ =.W.E.(.:.( / T 1 & e r o X o $ - r + o : O y 5 4 8 m K _ X.v.^.zXtXiX>X}.[.[.K.W.W.W.G.n.h.d.p.4.",
"=.-.$.$.;.Z.!.CX{ M 6 5 V ` 4.oXeXyXoXw.@._ H P 3 & % - X u r X O X % O e e 6 < Z ! / ' :.F.oXyXDXeX:X*XT.K.W.W.R.J.n.j.u.e.:.:.",
"*.+.o.+.:.v.^.#X/ 9 4 8 c f.bXeXeX7X,X(.:.{ / T B q 5 X $ o O O $ s t @ 4 q 6 Z D z ` $.f.W.+XVXNX8X>X$XOXR.W.!.!.v.N.w.e.:.:.*.",
"+.X.X.o.>.n.XXW.G n 0 R :.eXjX:XxXrX7XoXD.,.) c G N 7 M 4 9 4 6 6 1 n 8 9 0 R D x ( } =.G.W.*XuXZXeXbX#X}.^.T.W.G.v.h.l.:.:.%.$.",
"{ }  .X.;.x.+X=.V 0 G X.eX@X|.oX*XeXCXeX[.m.;.] x T F w 7 M 0 n 3 q 7 M P 0 H z _  .=.e.R.XX#XwXLXSXwXkX:XoXW.E.G.b.p.5.:.-.$.X.",
"_ _ _ X.;.(.DX` J L } ,X;X{.T.XX>XbXtX7X#XW.t.=._ x U G Z N D V Z L M w P I / _ { -.w.H.W.OXOX:XhXuXeXeX#X}.W.W.H.h.a.:.=.+.X.} ",
"] { ` *.r.T.|._ k #.>X+X^.L.[.oXoX#XvXuX7X$XW.u.+.` _ x W W W z Q ^ ~ k z { } ..<.f.I.W.W.&XoXoX+X+XtX7XyX:XW.W.G.f.5.:.*.X.` { ",
"` ` o.6.{.BX;.` :.7X|.~.W.Q.^.}.XXOX,X6XBXsX}.G.:...` ` _ _ _ _ ` _ ' | { X.%.8.v.E.T.R.T.R.W./.G.K.=XtXZX2X!.!.P.e.:.:.o.{ ) ` ",
"` +.=.H.OXXXu.!.7X(.U.h.T.R.R.W.oXoX,XgX0XtX<XW.e.2.X.X.` ..} } _ } { X.:.4.k.J.W.^.U.W.P.M.0.1.<.t.v.oXtX0X}.W.G.e.;.$.X.{ ` ` ",
"%.d._.oXVX@XLX+XW.v.z.b.W.R.^.E.$XoX*X,XeX7X,XW.v.2.-.*.+.%.@.#.X.%.>.4.n.!.R.E.T.W.R.m.1.*.#.} _ +.*.H.$XeX+X!.L.w.:.%.+.X...X.",
"b.R.4XBXBX>XR.m.t.p.e.z.W.E.R.R.E.OX;XeXFXeX}.E.x.d.:.:.;.<.:.;.>.g.z./.W..X|.oXoXE.V.:.X.` ` ) x _ } r.}.yX>XT.^.z.d.:.=.>.:.d.",
"$XcX7X2X!.W.w.:.:.q.m.b.`.^.R.W.}.,XgXeXpX>XE.Z.x.i.6.4.7.0.k.b.H.I.R.+X+X<X*X:X}.E.3.+.( | x ~ Q ` { 3.W.7XgX&X!.W.J.H.I.F.U.[.",
"6X+X@XT.v.3.,.:.6.0.Z.n.I.W.W.U.#XqXBXeX@XT.n.z.d.d.e.i.z.H.W.R.oX4XcXwXsXtXtXOXE.Z.-.} ` k Q H U ` { 8.Q.bXtXeX:X X.X@XoX+X,XyX",
"+XT.P.f.:.*.<.:.1.l.v.D.W.R.R.3XiXtX&X!.A.r.;.6.8.y.m.H.W.W.,XbXuXHXwXtX8XHXtX,XU.e.X.` / k ~ k x ` } :.J.OX*XeXyXtXtXwXLXeXMX8X",
"R.j.w.:.*.;.,.4.s.n.j.~.R.R.=XVXOX~.f.:.*.&.$.:.e.v.R.^.OXvX7XeXBX7XtXyXVXeXeXoX!.4.+.` z / k z ` ` #.6.z./.].W.Q.oX@X}.kXeXwXoX",
"P.j.8.,.:.7.t.f.z.H.J.W.!.:XVXoXZ.:.X.....} =.4.z.!.@XgXuXSXrX7XyXxXwX7XeXeXyX5XQ.7.o.` ' ` ` { ` @.:.d.n.G.R.W.H.R.T.@XyXiX4XR.",
"E.h.u.h.w.b.j.z.H.W.R.I.>XeX+X1.o._ ` _ ` +.>.v.{.$XeXeXeXpX4X,X#X+XcXpXtXeXxXoXE.d.%.} ) { ` } <.4.r._.S.{.H.A.x.z.{.oXrXwX,XW.",
"R.W.G.W.R.^.].R.E.R.oXzXyX^.:.' x z z ] _ *.w.W.:XeXtXiX+X:XXXoX,X>XgXtXqXKXjX@XW.V.;.;.@.X.-.>.y.P.R.U.W.K.E.x.v.b.j.W.+X8XxX|.",
"cX:X}.XX@XoX@X,X;XxXtXkX^.#.{ W R S U _ } :.E.2XwXyXzX#XoXoXOX}.:X1XgXpXCXKXiX#XR.W.h.q.i.x.h.J.T.W.}.XXoXR.W.G.e.q.8.e.B.W.wXCX",
"(.5XeXsXdXeXeXAXyX=XR.e.{ z H A n Z R ` ..p.oXNXuXaX3X%X}.$XoX}.+X+XgXeX0XtXtX$XOX+XE.(.R.R.XXoX:X#XcXlX2X|.[.Q.d.;.+.` { o.:.M.",
"x { X.%.;.:.,.>.;.=.{ { Q m 8 9 w A S | @.E.:XBXhX,X}.oX].W.R.oX&X:XbX7XwXCXeXeXkX@X2X+X#XxX7XsX7XuXyXrXyX:X}.W.9.X.) x ~ R Y ! ",
"8 N Z L G W P H ~ K q n i 1 < 1 6 C E ` :.E.eXyX,XoXoXW.R.W.W.^.XX X;XmXtXeXAXsXyXJXeXtXyXeXSXNXyXwXyXZXeXrX}.(.:.( k T M 3 1 8 ",
"> r X g & h 2 7 7 2 1 1 % u a O 9 n G _ 8.|.KXeX+XXXOXT.!.R.^.Q.W.*X+X:XcX7XtXyXeX7XeXwXeXrXeXzXzXyXeXtXSXZX+XW.*.` I M g + i   ",
"X   : p % . O # a y e o a r + e g 2 Q { q.$XwXeX,X|.W.W.W.W.R.W.W.R.}.OX*X>X+XjXwXbXvXvX:X*XOX+X#X5X+XcXeXrX,XS...c < 6 X - r r ",
"r y % = X > # a + $ u O :   > : O N H _ g.oXZXyX+X&XW.T.W.!.W.W./.E.~.}.#X:X+X;XgX:X#X:X+X@X=XoXoX|.,X+XeXeX$XN...I L X r X % - ",
": $ # $ e . X O ; > + O t X O y j q K ] y.XXeXtX;XoXR.W.~.!.U.R.W.T.!.+XOX,X,X,XcX=X>XOX+X}.oXoXXXOX@X*XrXeX1Xf.` L 8   O y e O ",
"O O $ O O O O O > X # O + O X : < D U } e.}.eXtX2XT.!.R.P._.G.F.R.T.).OX#XgXrXuXeXkX;X#X1X|.@XoX}.XXXX,X7XeX}.4.` A 9 O = % > e ",
"O O O O O O O O $ y s O : u t r 9 V k X.f.OXLXeXoX{.W.S.v.h.c.b.^.W.}.2XeXyXDXZXCXeXeXgX:X;XOXXXoX,X-XeXeX0X^.*._ w 8 % X O + e ",
"O e O O O e O O % s r + 5 s % & F P ' $.H.1XMX=XT.T.L.v.l.f.f.h.W.W.+X6XFXtXeXbXqXyXyX7XtXyXjX>X:XhXzX0XeX#XG.../ T 8 & o p O O ",
"O O O O O O O O X O # y + @ 1 n N { ..g.R.VXyX}./.^.x.V.u.i.t.n.W.T.+XuXyX$XW.R.W. XOX;XeX6XCXuXyXsXVXtXzX/.e.#.' G N 6 # e t > ",
"O O O O O O O O O o t y @ j 3 A z X.6.R.rXwX+X[.R.b.x.e.3.1.2.M.~.R.OXyXoXR.f.7.:.s.v.!.W.@XcX7XfXKXeXwX}.~.f.X.] W B 7 : O o X ",
"O O O O O O e O o + a   j w C b X.i.U.kXZX4X$XI.G.z.l.2.;.>.8.m.K.{.7XiXR.7...O.} ..+.:.b.W.XX<XeXeX7XxX3XU.F.*._ E J 7 6 - : % ",
"O O O O O O O O O # $ 1 3 N / ..Z. XyXSXnX@XE.W.j.w.7.-.,.,.4.e.E.!.wX>Xv.@.( ` | ' X.:.n.T.}.kXtXJXeXBXiX*XR.;.{ ) G C 7 v % a ",
"O e O O O O O O + o & 3 N [ X.H.OXuXwX#X+X!.R.v.p.7.;.:.-.=.;.f.W.R.tX#X7.} _ ` ( } ;.b.R.1XtXeXeXyX0XeXeXjXT.f.+.( H V C 8 . O ",
"> e y O ; X r y O < 8 f c o.G.vXSXlX:XOX!.^.H.e.3.:.$.@.+.%.:.r.(.R.eXOX:.{ _ ` o.4.!.+X7XwXrX:X+X*X:XyXNXeX@XR.>.{ c ~ C 7 9 o ",
"O y O - y e : X & 0 m k  .c.:XtXOXoXR.!.W.S.m.e.:.,.X.+...*.;.q.U.OXyX!.;.O...=.G.}.rXtX5X@X@X}.oX+X:XyXrXHX:X'.d.#.` x G N 1 z ",
"O - X o $ p # 1 n q H { e.,XpX#X+XT.!.E.H.v.c.;.=.@.X.@.X.-.;.M.W.oXBX).e.;.z.~.sX7X<X/.!.!.W.E.XXoX$XcXwXeXsX}.^.4..._ / A 8 < ",
"l $ + > t o v 7 q W { :.^.VXOX^.R.^.R.F.n.q.1.,.%.o.+...X.,.9.v.!.}.BXoXH.E.#XMX:XR.R.R.W.T.W.!.oXoX,X1XeXeXHX,XoXb.=.{ c L L 7 ",
"j : p % - v 1 w w z ..^.CXzXoXR.!.W.G.N.b.w.;.*.+.o. .X.+.*.7.n.U.:XSX XoXzXuX#XW.W.J.P.W.].R.W.E.@X}.OXmXeXBXeX+XQ.3.} x ! n 8 ",
"j , r $ z 1 w F x  .f.2XwX}.W.W.E.S.Y.h.d.7.:.=.@.+.X.o.$.>.d.P.!.&XeXeXsXwX}.E.S.m.k.S.W.^.!.W.W.XX}.=X,XiXwXKX+XW.:.{ z T 1 C ",
"k + X 4 7 N V H ` :.oXwX3XT.E.R.R.F.x.z.c.1.,.-.@...@.@.=.4.b.~.oXxXSXBX7XoXE.z.r.e.v.m.W.R.E.R.[.}.oX+X+XkXtXHX2XJ.%.` G V 7 9 ",
"9 4 9 9 3 F P ' &.T.gXeX+XW.!.W.W.R.J.b.z.w.:.*.=.X.%.:.1.B.R.!.*XtX8XwX@XE.Z.f.6.y.e.M.G.[.T.!.!.W.OX}.,XcXMXsXR.7._ z L 8 n 6 ",
"2 9 A A G j ' +.f.}.LXtX1XW.W.W.!.E.W.G.M.h.e.:.:.;.4.e.b.W.W.,XeXwXzXoXW.b.e.;.;.e.e.x.P.R.R.T.W.W.E.oX*XrXwX#Xj.#._ P Z n f 8 ",
"J L J K / ` X.f.].+X6XwX:XXXE.!.W.!.E.E.R.x.B.e.p.b.h.W./..XOXeXeXgX|.W.n.t.:.:.>.r.f.h.F.R.W.~.W.!.R.@X,XeX7XW.;.( z I V 0 q n ",
"G x _ ` ..$.c.U.U.4XeXpXeX4X+X,X+XXXOXW.!.U.R.G.W.Q.^..X;XiXeXDXqX@XW.J.r.:.=.:.;.w.f.M.v.G.R.R.R.R.T.oXzXuX&Xv.X.{ z T A A J G ",
"' ( +.@.,.w.j.R.R.+XvXeXeXDX9XeXyX8XjX:XoXW.!.W.oX:XtXeXyXxXMXiX#X^.H.f.;.:.=.,.3.c.c.v.b.G.W.Q.~.W.W.,XeXwXK.y.#._ z c x j x ` ",
",.;.6.p.w.N.T./.W.oXXX:XOX2X:XzXaXtXuX7XtXgXmXwXDXeX:XT.R.*XrX:XW.E.l.w.,.:.7.e.t.0.j.b.j.S.W.R.R.W.$XoXCX,X!.4.X.{ ( { ` _ | @.",
"G.W.W.R.W.R.W.R.!.E.W.W.].R.J.W.!.].$XvXeXeXjX,X!.D.C.M.R.+XrX+X!.W.b.f.u.t.0.l.M.v.b.c.v.G.E.W.E.R.$XcXNX$XW.i.$...X.@.;.:.g.h.",
"XXoXXX%X!.[.!.R.W.Y.h.p.;.;.;.-.:.f.F.!.R.T.W.y.=.;.=.u.R.:XDX#XR.W.!.D.J.L.m.v.l.v.Q.D.H.H.[.!.).R.XXuXVX:X/.z.g.e.q.v.D.!.XXOX",
"yXeXzX,X:X$X+XW.!.S.i.>.*.+.o...+.$.,.:.6.<.=.+.} ` ' +.-.H.>XeXyX;XoX!.E.W.W.W./.T.W.S.Y.E.R.R.E.W.,X7XCXeXoX!.E.W.{.|.5XzX7XeX",
"DXVXtXeXCXuXcX+XW.K.c.:.@.} { } { ` o.o.+.X._ _ x c W R x ` +.:.G.oXrXVXeX#XoXoX!.R.E.!.R.^.E.W.^.oX<XeXDXsX+XXXoX:X>XyXeXAXeXeX",
"eXrXeXyXBXVXHXtX+XW.G.r.*.X.{ ' _ { { _ { ` / G A 8 C M 7 C V J K ` o.q.R.vXSXeX;XoXR.W.E.R.!.!.R.oX=XgXrXeXtXeXpXHX0XeXyXrXlXkX",
"OX;XzXcXwXyX7XCXNX,XE.G.e.%.{ _ ` _ { ` ( z N C 8 j   X O p e $ 9 1 F ~ ) =.S.$XDX<XOXQ.[.R.E.R.~.|.,XjXtXrXwXyXyXtX7XcX+X,X>X:X",
",X+X*X#X:X4X2XtXSX7X:XK.Z.>..._ ` ` / x K Z w 4 X = i s t # o O = a % 4 n W _ 6.oXsX7X*X}./.E.W.XX}.:XzX9XZXtXyX7X0X;X:X&XoX}.%X",
"%XoXXXoXXXoX}.3XgXdXsX#XU.;.#.` ' x z ~ U q & & a O t t p # X > y # O + d 1 w ` :.E.wXtX:X XXX+XoX2X=XwXeXeXrXeXcX+XoX}.}.W.&XOX",
"W.[.E.W.!.!.[.}.:XOXwXrX'.:.{ ` z H U T q 7 - O   $ . o > ; X > y X p = r u 2 G _ :.W.wXyX,X,X+X#X:XzXiXeXyX7X>X+X$X|.R.W.T.W.W.",
"R.^.R.W.[.E.E.W.oX$XeX+XZ.} ` k ~ H L B C & > O + O y O   j l * j j + y % = i 1 n ] :.+XyXyXeX$XbXjXuXeX7XbX4X+XoXI.T.W./.[.R.!.",
"R.].R.R.!.R.T.^.~.#XDXOX,.` c Q G V Z B B 6 . a X e y > l g 1 7 5 j $ . X u . j q K { v.XXeXSXeXyXwXeXrX7X:X*XoXoX[.W.K.'.!.R.W."
};
