/* XPM */
static char *e538f19ad4674fc1ffbdaed8ca3737feb7lqMfe1YjlS8Koc[] = {
/* columns rows colors chars-per-pixel */
"64 64 241 2 ",
"   c #3C0201",
".  c #390505",
"X  c #341D0D",
"o  c #282913",
"O  c #332618",
"+  c #38310E",
"@  c #39352A",
"#  c #353635",
"$  c #3C3C3C",
"%  c #373937",
"&  c #2C2D2E",
"*  c #430101",
"=  c #4C0201",
"-  c #460308",
";  c #530202",
":  c #5C0201",
">  c #570308",
",  c #640201",
"<  c #6C0101",
"1  c #620A01",
"2  c #630009",
"3  c #6C010B",
"4  c #6B0903",
"5  c #730101",
"6  c #7B0101",
"7  c #73010A",
"8  c #770406",
"9  c #730214",
"0  c #680215",
"q  c #452C19",
"w  c #493B1A",
"e  c #59391A",
"r  c #4B2D13",
"t  c #64391C",
"y  c #563C26",
"u  c #44383B",
"i  c #503633",
"p  c #693C28",
"a  c #3A4239",
"s  c #2E4535",
"d  c #574119",
"f  c #524414",
"g  c #67491B",
"h  c #774A1D",
"j  c #6D420F",
"k  c #574324",
"l  c #44443D",
"z  c #514929",
"x  c #694927",
"c  c #774829",
"v  c #675129",
"b  c #765328",
"n  c #7A4A35",
"m  c #7B5236",
"M  c #6C483D",
"N  c #7A602F",
"B  c #3A3946",
"V  c #2D3C41",
"C  c #443C45",
"Z  c #3A4444",
"A  c #3B4F44",
"S  c #424242",
"D  c #4D4D4C",
"F  c #484549",
"G  c #544946",
"H  c #495249",
"J  c #56554C",
"K  c #544B56",
"L  c #4B5557",
"P  c #545454",
"I  c #5A5B55",
"U  c #555C5C",
"Y  c #5B5B5B",
"T  c #575657",
"R  c #484D55",
"E  c #655959",
"W  c #6F564B",
"Q  c #5D635B",
"!  c #5A6658",
"~  c #5F644D",
"^  c #63635D",
"/  c #67665A",
"(  c #68664B",
")  c #5B5C62",
"_  c #564E63",
"`  c #635E63",
"'  c #695E68",
"]  c #745D6F",
"[  c #5C6364",
"{  c #5B6769",
"}  c #5F736D",
"|  c #646464",
" . c #636964",
".. c #64646A",
"X. c #6D6C6C",
"o. c #696667",
"O. c #766A69",
"+. c #6A746A",
"@. c #76756C",
"#. c #6B6A72",
"$. c #736D73",
"%. c #7B6B78",
"&. c #6C7373",
"*. c #6C7777",
"=. c #737373",
"-. c #747B75",
";. c #7B7B74",
":. c #757B7C",
">. c #7C7C7C",
",. c #797477",
"<. c #8D0202",
"1. c #860304",
"2. c #940102",
"3. c #9B0102",
"4. c #93020B",
"5. c #9B010B",
"6. c #980800",
"7. c #870610",
"8. c #A40102",
"9. c #AB0102",
"0. c #A7020A",
"q. c #B30003",
"w. c #BA010A",
"e. c #AA0111",
"r. c #83392C",
"t. c #D00002",
"y. c #FA1B18",
"u. c #F8231B",
"i. c #F12815",
"p. c #FE1D24",
"a. c #FC1C28",
"s. c #FF1535",
"d. c #FC2224",
"f. c #FE222C",
"g. c #F62624",
"h. c #F72733",
"j. c #88572A",
"k. c #875639",
"l. c #8D502F",
"z. c #966438",
"x. c #9B642C",
"c. c #F74339",
"v. c #8E5343",
"b. c #B8774A",
"n. c #AF7251",
"m. c #837B74",
"M. c #827C7C",
"N. c #87787C",
"B. c #827D67",
"V. c #8A6352",
"C. c #FB5A59",
"Z. c #FC4347",
"A. c #E7675F",
"S. c #79837B",
"D. c #6D8271",
"F. c #848379",
"G. c #898C77",
"H. c #D58359",
"J. c #E78755",
"K. c #7C7C82",
"L. c #787B87",
"P. c #6F7881",
"I. c #867984",
"U. c #8A7A90",
"Y. c #768382",
"T. c #818182",
"R. c #8C8C8B",
"E. c #888987",
"W. c #95898B",
"Q. c #879488",
"!. c #97978D",
"~. c #8C8C93",
"^. c #988995",
"/. c #8B9695",
"(. c #959595",
"). c #9B9595",
"_. c #949A93",
"`. c #9B9A95",
"'. c #95959A",
"]. c #9B949B",
"[. c #949B9B",
"{. c #9A9A9A",
"}. c #A29798",
"|. c #A39093",
" X c #97A296",
".X c #A7A79B",
"XX c #B0A99F",
"oX c #979BA3",
"OX c #9191A4",
"+X c #A79DA4",
"@X c #9BA8A5",
"#X c #9AB0AC",
"$X c #A5A5A5",
"%X c #ABA5A4",
"&X c #A4ACAB",
"*X c #ABABAB",
"=X c #A7A8A7",
"-X c #B3AAAB",
";X c #AAB4AC",
":X c #B4B3AD",
">X c #B4B7AB",
",X c #A9AAB3",
"<X c #B3ADB5",
"1X c #ADB3B3",
"2X c #A9B7B7",
"3X c #B3B3B3",
"4X c #BBB4B4",
"5X c #B5B5BA",
"6X c #B9B9B9",
"7X c #B7B8B8",
"8X c #FFB39A",
"9X c #C2B7B9",
"0X c #FBB9A4",
"qX c #CDCCBD",
"wX c #FAD1B7",
"eX c #B5B3C0",
"rX c #CCB9C2",
"tX c #BAC5C4",
"yX c #CDCDCD",
"uX c #C6C8C5",
"iX c #D4CBC9",
"pX c #CDD3CD",
"aX c #CBD8CA",
"sX c #D4D2CE",
"dX c #D8D6CC",
"fX c #CECED1",
"gX c #D4CCD5",
"hX c #CCD2D3",
"jX c #D2D2D2",
"kX c #D7D5D9",
"lX c #EDD6D0",
"zX c #D0DEE7",
"xX c #ECECEC",
"cX c #E8E7E5",
"vX c #F2EBEA",
"bX c #EDECF3",
"nX c #F4EBF3",
"mX c #FCFCFD",
"MX c #F7F7F7",
"NX c #ECF4ED",
"BX c #E5D3E3",
/* pixels */
"D o.>.E.o.>.>.R.{.:.E.=X{.R.{.=X=X3XnXMXsXvXvXxXMXlXvXmXcXiXsXvXxXmXxXmXjX1XP | _.-XC.d.q.0.9.< 5 5 , < e x o.' 3X4XR.| u =.P P ",
"o.&.P | I.(.R.F.{.R.*X>.(.>.>.` $X5XmXmXvXMXyXNXgX>XMXNXbXvXiXxXxXxXxXxXsX3XY (.,XpX;Xc.<.8.<.0.0 3.8.3.h.E [ { {.$X:.o.Z Y o.P ",
"S.(.P o.:.{.R.@X(.*X:X{.>.M.:.| 3XhXxXmXvXvXMXvXpX4XcXvXlXdX#XNXxX3XxXfXjX(.D *X].5X0XQ.c 4 5 8.: , 5.< u.n m.&X=X{.{.P % P P Y ",
"` o.| (.| E.>.I.T.:.=X].>.| | Y >.fXhXnXvXcXdXcXsX>X6X9XXXF.^.wX3X3X=X*X*X=.P ].oX.X'.n.x : > < 8 , , > 2.k.}.%X=X{.Y Y S S P T ",
"` P >.3XR.{.=X5X(.{.=X=X(.:.X.X.(.=XgXvXkXsX$X*X{.4X#.[ { ...._.*X].(.*X{.(.Z | ;.G.o.{ m < 6.0.5.2.6 5 9.c Y.:.{.>.T.P $ Y Y T ",
"% Y >.m.M.S.>.>.>.K.3X(.o.*X:X{.X.(.3X=Xm.).+X$XR.[ E a n l >.].{.{.=.D ^ >.P | 7XI.~.+.v.j.8.3.3.8.< 2.5 0.N J.R.M.,.Y F $ Z l ",
"% a o.@.m.!.%X3X:XxXmXxXxXxXyXxX3XjXMXxX| ).$XT.) f : , ; @ J ~ o.=.T T P T | X.>X#X}.|.).Z.q.8.3.< 1 1.5 4 z F >.'.=X=.=.D | | ",
"B o.iXiXkXvXvXNXxXxXxXjX$X3XjX3X`.fXbXxXM.I o.Y X ; < = 4 = M o.| | P J T T D T {.!.@X9X2XR.g 5.6 9 6 < , < , r o.R.=X(.~.>.`.>.",
"# mXxXNXlXcXkX1X3XjXgXsX;XbXvXiXnXMXxXBX+.v # q 5       * - @ Y o.&.o.P P T D T ;.).#X*X9X@Xm.7.< 6 4.2.5 , 5 2 : I I.K.~.M.%.D.",
"S vXcXmXcXdXMXmX4XvXMXmXbXbXcXjXmXvXhX0Xo.d y : = = , * . q V G | X.| | | P Y U ).M.[.>.N.m.+.F.u.0.2.0 8 , < : , < ~ / O.#.I.>.",
"C bXlXxXqX0XwX-XaX<XNXwXwXpXeXjX1X.X{.;.h   , - * ; 5 = o & C A | >.>.o.=.^ I F >.[ | |  ./ *X/.b.v 6 5 , , 6 8 ; 4 w E Y.! ^ I.",
"Z qXtX;.t 8X,X*.$X<X2X.X.X2X9X*X+X;...c k . * 5 = < @ o R E ` I =.{._.X.,.X.U % K.*.I.;.{ =X).-X~.z.< : , : : 2 2 2 5 g n o.$.Q ",
"u !.C.m . x l.'.^.$X4XyXkXgXyXoX/.~.k.3 , : , 1 e @ p I./ S.Y.I.X.3X{.6X=.Y F $ K  .(.N.).:X{.=X=XW.Z.y < 7 1., < < ; , w l (.{.",
"% ~.h.d.= 8 y.j.Q.=XjX7XuXkX`.|.J.:.g.2.8 5 5 < z H T.].{.W.[.).3XjX7XyX3X{.% F P ,.&.K.{.:.&XY.o.,.m.l.2.<.2 <   5 , 8 8 m @.'.",
"& !.c <.* . 5.c U (.=XtX#X=XW./.H.i.y.2.< 5.4.c :. ._.{.| o.S.6XcXjX*X{.{.| Y $ L Q >.[.&X[.`.).{ -.oXH.n < < < < , 6 4 , 5 t k.",
"F Q.l.3.*   <., a.F.~.+X&XI.;.b c u.5 4.f., d.b.I.~.!.3XgX).K.`.7XjXyX6X=X>.S S E &.,.+X*X'.4XX.I.>X%X].! c < , 3.5.5 <.< * 7 + ",
"$ ' l.1.. - i.u.<.b j.l.b x x < y.f.3.2.5 b c.L.=X%XeXpXhX>X%XkXtX$X-X4X3X1XI C $ >.,.X.=X{.>.| `.*X_.,X^ b z.< 3.4 2.9., * = 3 ",
"% E.! j.* * p.9.0.: 3., < 6 , 5 9.a.2.3.t c oX).#X2XlX1X,X$XoXuX5X'.+X,X;XiXX.L | >.=.X.o.>.X.>.K.X.!.:.>.I.,.j.3.<.w.5 2   < = ",
"% Y.S.k.. 8 , 0.6 < 4., 8 < 5 5 3 , 6 y y C...J..X&XR._.W.b.z.c.x.Z.C.C. X<XO.H P (.=.| &.&.o.>.E.>.{.;. X/.O.b.c 2.0.5 5 < 8 * ",
"%.S.>.% =   : 7 5.= 5.6 5 , 5.2.6 : 2 f # C.i.g p.g.p u.p.y.a.y.d.y.u.d.c.C.k.l % :.>.=.o.=.P ,.! }.I.oX&X_.=X%XU c 1 : : : 6   ",
"C J T C o . 2.< 5 5 < 5 : < 5 2.3.4 6.0 * d.h.p., d.y.u.d.g.g.p.p.p.u.u.x % G & # }._.,.{.=.Y Y ..X.m.K.L.+X.XOXl.) x 1 . 5.7 * ",
"# % # C o & O 6 , 4., 4 7 6 < : 5.: 6 = = : y.p.q.< 5.2.0.6 y w v v v.` ..D F C # >.=.Y P P l D I.I Q D./ ! O.`.z.U.l.: = 8.> = ",
"% % B % u & o @ y , , 5 . = . : = *   ;   = = < @ r X w @ w K F | E Y Q | L T Q X.D Y Y | P C T P Q K ..^ { K s D g j < * 3   = ",
"! E a ) C H l & w d X < *   * * O O O q o g B $ a ! [ O.....H / :.O.).{.' Y ' +.1X{.o.X.>.| [ P &.D ' o.[ o.l.x x i 6 3 , - > * ",
"P X.[ o.X.o.| D / { c { j.D v & R i W J &...|  .#...I.m.;.:.o.' m.oXm.(.$.L J Y ,XuX X`.[.F.[ [ / G  .b :.x.A k.k 2.5.6 <.; , < ",
"{.{.{.3X{.3X>._.<X&XW.$X|.`.-XF [ E G `.=XO.=.| m.S./.} K.=.M. .K D.:.o.#.o.K E.{.^.F.R.o.c l.h M e e t m 8.f.2.8.9.8.0.5 , 8 3.",
"yX3X3XyX3X3X7X{.5XyX[.rXtX=X@X=.&.Y X.$.{.`.;.&.:.(.{.1XN.{. .| U E E / l.F % j.y.f.0.q.2.7 0 , 4 2.7 3.< 5 2.3.2.8.9.9.5 5 5 9.",
"jX3XyXfX3X3X3X3X_.jXaXeX_.fX3X{.&.Q &.=.(.M.$.S.$.N.`.).).F. ./ C v w O . * 3 < 8.2.9.1.5 <.= < 5 , 0.4 < 3 6 3.8.9.8.9.5 : 9.0.",
"yXjX6X3X3X3X{.{.:X$X5X*X6X7XiX).E o.T Y.I.#...=.=.*.N.K.) ! M X o = < 4 = - . - 5.7 5 5.< 5 5 3.6 0.3.< : 2.<.3.2.< 8.8.< 4 < 2.",
"jX3X3X3X3X{.X.X.M.*XhXkX,X[.*X]./ Y T ` =.=.>.X.&.N.-.T H y y * 6 > 1 * 5 >   * 5 , 5.6 3.< < h.c v l.b c p.s.g.9.0.9.q.= * 2 3.",
"yX6XyX=XI.,.U P ..{.@XjX&X:.,.:.@...Y m.`.) _.O.Q / M f : < < < 5 5 > q : 5 = < : v x z.E b.-.F.~.R...E.Q.oXR.!.:.;.o.n k O f u.",
"3XyX6X(.3X_.X.P | {.}.:X}.;.I `.{ L T m.(.{ M.v + t < 4.5 < < , <.5 5 9 f 2 % ) ' ;.Q.OX}.S.^.].].-.E @.&.).>.K.].7X_.M.G.u o.b.",
"1XjXjX`.|.*XM.{.7X(.$X).-X{ $.}.[ D R =.m.g.4 < , < 3 < , < < : 6 1.s.( I { R {.>.{.X.{.=X'.{.{.{.o.U =.o.&.=X'.>.3X].3X{.I K.:.",
"_.<X1X[.3X{.&X3XoXeX=XM.'.[.*.`.G % u f y 5 7 q = 8   q > < , m T }  .{...T Y E >.{.| (.T.X.>.,.X.X.o.^ -.>.=.`.].`.>.`.| | :X{.",
"E J o.P D I P J J T U ! Z G R @ q . * *   2 O = 5 * 6 : e v ^ ).` %.&.O.#.K P L | Y X.Y >.o.` X.=.P P P o.| X.X.,.S.{.X.S ..D E ",
"T ) Z C Z ) C % u % @ u & & .   * = = , 5 8 2.5 , < x ;.K.+X*X>X;X X|.>X>.L P ! T Y P P | Q P Y D T P Q C P -.X.{.{.$.Z $ D U D ",
"K.-.`.X.$.X.| ^ o.U ..H v.e 5 5.4 * = = , 5 = < d z ' ..{ ..| [.gX3X}.3X| T Y u Y D P o.T :.Y | {.{.=.o.Y [ | =.| X.X.F S P | o.",
"$XW.{.&X`.E.D.R.Y J y 5 : 6 < <.4 : = 7 : * 8 # _ E J J H R Y  .=.) L L R S E =.(._.=.>.P X.>.{.]./.6X>.X.>.>.{.M.:.>.$ $ | X.(.",
"I N.W.-.E./ G i p < 5., : , , 9 = : < , > z & L U ' ..` E P G E J | T a I /.{.>.=.=.P Y =.X.(.{.(.,.{.-.,.(.=.]._.{.$XS u >.S.=.",
"c x m n x j.7.5 , , 5 5.5.: = = 7 * > , % ..] ( I ../ R D o.L P P Y ` P B E ....X.=.$._.=.M.>.(.=.X._.I.(.=X>._.(.T.=.$ U T X.| ",
"5 4.1.5 < 2.8.y.3.2.< 4 < < 0.< 5 > G ` :.`.o.) Y.| | o.| =.| | ..P o.P % P X.o.X.Y S.$X>._.+.`.K._./.(.{.{.'.].K.O.+.Z Z }.(.$.",
"4 3.4 5 < 5 u.0.d.e.8.5 5 5.< q.m W `.<X5X%X].$XR.+X{.,.R.{.{.) o.>.Y o.$ | o.=.{.$X).4X'.].T.'.`.).).}.(.,.`._.#.| K C $ O.N.Y.",
"5 8.6 7.9 + 2.q.3.8.0.9.3.5.f _.Q././.,X;.).=X[.{.R.$X].>.$X'.(.{.}.*X=XS Y X.:./.{.{.[.7X'.I.).}.:.'.#X{.}._.M.m @ u & a D 1X/.",
"3.< + 5 6 4.< 8.u.t.2.5.<.j.T.}.{.].5X5X7X*X_.<X3X_.jX{.*X.X=.*X>.3X1X3XY T {.=.N.>.3X/._.S.@.S.(.6X`.$X{./.,.Y g o O = * X .X}.",
"> , 6 3., < 7.5 8.8.f.y.!.9XtXoXm.|.%XsX*XaX5X{.6XyXyX3X3X:XjXyX=X1XjX4X{.P {.(.=.`.).).=.M.!.M.=X2X}.[ | @.n z e = * *     2.b.",
"8.5 5.3.3.< 2.1.d.g.b.9XMXmXnX>X&._.4XuXdXpXhX3XyXjXyX6XyXnX5XpX3XjXyXjX1Xo.{.$.+.[.3X5X'.oXK.[./.:.E k.e , + 5 = 3   -   7 6 6.",
"9.3.8.3.2.4.0.a.C.6X;XrX>XMXyXgXyXhX$X3X6XjXcXhXjXjXjXxXjXyXyXgXjXgX1X3XjX3X{.(.@.;.+X/.{.).X.S.b d 0.5 , 8 ; ; 6 . > .   5 5.5 ",
", u.d.3.a.u.C.XXyXtXbXgX5X>X_.1XgX1X6X:X*XgXxXxXjXyXpXfXxXyXNXjXyXxX3XyXsX7X-.{.$.[./.^ G.V.r., < 3 = : 4.< ,   < ; = * * 6.2.< ",
"8 x m k.G.2XrXbXcXmXvXcXvX%X:X`.(.6X{.3X3XjXxXxXxXxXfXjXyXbXxXxXpXxXxXgXyXjX(.{.$.].#.! F.x r 5 < 4 = : < 2 , < - = <     5 2.< ",
"j.G.^.U.$XaX*XpX3X.X`.%X@.}.{.(.3XyX(.{.(.jXxXxXxXxXsXjXjXcXjXsXjXjXcX3X@X3X=X(.;._.@.:.k.v.f w k.E Q I { F c e - * > - . , 5 4 ",
"F._.R.{.oX(.&.P | | | ^ ;.}.=.=.{.3X7XM.>.:XjXfXjXpXyXjXyXjXjX3XfX3XyX6XY (.6X=. .$.) Q G n / / R.oX;.Y.E.( ` V f 4 r *   3 8 < ",
"P.{.+.^ O.X.:.| ) ` | | Y X.| :.$X3X6XX.$X{.{.yXgXfXkXjXyXjXxXpXjX3X3X`.$.3X(.| | ,.' Z  .| Y.I.K.-.[.I.o.N.Y R x n < *   5 : : ",
"I.6XyX-X$XeX_.).>.| $.{.K.:.=X5X3X{.Y.:.3X_.(.kXpX6X@X*XjXgXsXfX=X$X{.6X(.gX>.| Q Q F.{.O. .R.4X|.Y.+.).+.-.;.c.p.u.6.* - 3 5 : ",
"lX>X5X<XjX>X!.I.K.-.| {.R.(.M.>.| P u Y P T T D | :.=.,.:.^ T P | Y Y D Y $ Y | T.Q ) ,.#.}.Y.{.).{.`.L.J z.j.y.a.g.g.=   = p.u.",
"/ W./ | [ | | P T D Y Y Y Y Y T E $ Y Y >.S Y T u F a P T u S T P U T Y F % % Y | ..{.oXF.P.` o.{ L.U.g.y.2.y.7.2.3.0.- -   = < ",
"S # % Z % C u % Y l Y Y S $ l % % | 5X*X3X3X=X{.{.3X(.{.=X{.:.| | | ` I D % $ $ Y Q P Q a E u A u k 5 , 5 : 2 ,     *   <     - ",
"Y P P T P $ D T P P T P P P T | u ).{.| {.=X(.(.[.>.!.$.].{ 4XX.X.,.M.{.{.a ) o.$. .U { %.U D c e 1 7 5 * 3 5 <   5 < 8 2.    = ",
"D o.P Y T Y T P T P | Y D U P P Y =.=.>.,.3X`.>.!.$.oX{ O.!.4XoXX.E.:.(.7X,.o.(.#.;X4X{.W.-.k : 6 : , ; , < 8 < - : 4 < , = . . ",
"o.P P Y P P P T P | E P P P D o.^ _.{.>.{.3X3X`.,X'._.).&.@X'.$.o.| >.*X=X].T.=.S.kXR._.}.c 1 6 9.8.f.w.2.3., e.* ; 2 < < * - * ",
"P T D P P Y D | D Y D U T P P P % {.=.*X_.=.7X:X:X6XoX'.*.=.3X).(.=X(.7X3XS.X.*X;XbXlX8Xz.3.9.9.8.f.9.2.8., 3., 8 , , :   - - . ",
"D  .P I T J T P T Y P P P Y o.P S o.(.{.{.3X4XiX4X=X(.4XiX4XjXhXjXyX{.jXxX{.=.{.hXnXdX&Xp.0.t.5 2.2.5 5 4.5 6 < , , < 4.  * * = ",
"o.o.:.[.X.| | (.`.| >.{.(.:.=.X.P 6X1X{.3XyXvXcXmXmXlXvXqX5X7X'.=X6X{.=X3X>.X.>.=X*X@.OXe 0.5.6 9.4.2.5 5 4 , 5.< < < 5 = , y y ",
">.yX`.3X`.oX(.M.].:.:.=.`.{._.].| jX7X(.jX3X3XsXwXdXiXzXqX*XiX4X=X3X*X(.5X{.Y | >.-...g + 5 , < < 2.2.2.8.a.0.2.< , p.x X H ! :.",
"5X3X=X3X3XX.>.:.^ =.{.(.$X{.{.>.o.yXfXjXyX3XsX*XqX7XwX9XwXkX>X2XyX5XsX{.3X=XP P T ^ B u B : 6 < < <.e.< f.8.9.2.3 < i.Z.w ~.M.K."
};
