/* XPM */
static char *_cef4e661c8c465af5836c42a9aa8e8fedTPrY1NKzWwKmzG[] = {
/* columns rows colors chars-per-pixel */
"64 64 144 2 ",
"   c #FFFFFF",
".  c #020101",
"X  c #0A0604",
"o  c #0F0903",
"O  c #090708",
"+  c #070808",
"@  c #0B0A0A",
"#  c #100B07",
"$  c #110F0B",
"%  c #13110B",
"&  c #1A130B",
"*  c #1D1A0F",
"=  c #0D1114",
"-  c #131312",
";  c #1B1611",
":  c #1B1915",
">  c #171718",
",  c #171C1D",
"<  c #1C1C1B",
"1  c #271B0E",
"2  c #231C13",
"3  c #2A1E11",
"4  c #2D2314",
"5  c #24221C",
"6  c #2A251C",
"7  c #2E291E",
"8  c #362C14",
"9  c #3C2E16",
"0  c #31291D",
"q  c #232423",
"w  c #2D2A23",
"e  c #26272A",
"r  c #272829",
"t  c #2C2C2B",
"y  c #32312F",
"u  c #39342C",
"i  c #2F2F30",
"p  c #2F3030",
"a  c #343435",
"s  c #383533",
"d  c #3C3A36",
"f  c #373839",
"g  c #3B3B3C",
"h  c #4E381D",
"j  c #543B1D",
"k  c #413B2F",
"l  c #583E20",
"z  c #413D36",
"x  c #5C4121",
"c  c #41403D",
"v  c #644425",
"b  c #684626",
"n  c #6D4926",
"m  c #754D2B",
"M  c #7D512D",
"N  c #704E35",
"B  c #7E5033",
"V  c #3F4140",
"C  c #434342",
"Z  c #4D4A46",
"A  c #4C4C4C",
"S  c #51504D",
"D  c #545453",
"F  c #5C5C5C",
"G  c #60605F",
"H  c #616263",
"J  c gray43",
"K  c #717171",
"L  c #767778",
"P  c #7D7C7B",
"I  c #82522E",
"U  c #865530",
"Y  c #8C5A34",
"T  c #915C34",
"R  c #955D38",
"E  c #985E39",
"W  c #97613B",
"Q  c #9B623B",
"!  c #A3663E",
"~  c #A4683F",
"^  c #A56741",
"/  c #A66940",
"(  c #AD6C42",
")  c #B16F44",
"_  c #A67047",
"`  c #B57246",
"'  c #BA7446",
"]  c #B3774B",
"[  c #BB7649",
"{  c #BE794A",
"}  c #B67F58",
"|  c #807E7C",
" . c #C2764A",
".. c #C37A4C",
"X. c #CA7E4E",
"o. c #C47F53",
"O. c #CB7F50",
"+. c #CC804F",
"@. c #D0804E",
"#. c #CD8150",
"$. c #D48452",
"%. c #D98654",
"&. c #DD8956",
"*. c #D0895D",
"=. c #DF8C59",
"-. c #E48B55",
";. c #E68E58",
":. c #EC925C",
">. c #F2965E",
",. c #C88860",
"<. c #D99668",
"1. c #E79463",
"2. c #EB9562",
"3. c #E89867",
"4. c #EE9C6A",
"5. c #F19761",
"6. c #F39963",
"7. c #FA9D65",
"8. c #F59E6A",
"9. c #F99E68",
"0. c #FFA066",
"q. c #F4A26E",
"w. c #FEA36B",
"e. c #E8A177",
"r. c #F4A271",
"t. c #FFA772",
"y. c #FFAA74",
"u. c #FCAE7E",
"i. c #FFB17C",
"p. c #848484",
"a. c #888888",
"s. c #9B9B9B",
"d. c #A3A4A4",
"f. c #ADAEAE",
"g. c #FDAF81",
"h. c #FDB486",
"j. c #FFB684",
"k. c #FFB986",
"l. c #FFB789",
"z. c #FCB58A",
"x. c #FFBA8B",
"c. c #FCB88F",
"v. c #FFC4A3",
"b. c #FFD1B6",
/* pixels */
"                                                                                                                                ",
"                                                                                                                                ",
"                                                                                                                                ",
"                                                                                                                                ",
"                                                                                                                                ",
"                                                                                                                                ",
"                                                                                                                                ",
"                                                                                                                                ",
"                                                                                                                                ",
"                                                                                                                                ",
"                                                                                                                                ",
"                                                                                                                                ",
"                                                                                                                                ",
"                                                                                                                                ",
"                                                                                                                                ",
"                                                                                                                                ",
"                                                                                                                                ",
"                                                                                                                                ",
"                                                                                                                                ",
"                                                                                                                                ",
"                                                                                                                                ",
"                                                                                                                                ",
"                                                                                                                                ",
"                                                                                                                                ",
"                                                                                                                                ",
"                                                                                                                                ",
"                                                                                                                                ",
"                                                                                                                                ",
"                                                                                                                                ",
"                                                                                                                                ",
"                                                                                                                                ",
"                                                                                                                                ",
"                                                                                                                                ",
"                                                                                                                                ",
"                                                                                                                                ",
"                                                                                                                                ",
"                                                                  g                                                             ",
"                                                              z S 2 r t                                                         ",
"                                                            t Z Z : q y e                                                       ",
"                                                            t @ @ > @ % 6                                                       ",
"                                                            + t D f 5 ; o                                                       ",
"                                                            > p.| C u u &                                                       ",
"                                                            d L c r 7 7 1                                                       ",
"                                                        < p K F * : + 5 w s q                                                   ",
"                                                      D J a p.f.P d r 5 4 c t @                                                 ",
"                                                    0 V F a d.s.a < - + > C D D                                                 ",
"                                                    > a Z s d.G C q 4 ; . 5 q < w                                               ",
"                                                      < t f K i * O . @ . o : %                                                 ",
"                                                      7 q D J < . . . . . # < +                                                 ",
"                                                      u < P a.s r * . . . 6 < X <.                                              ",
"                                                  ` N V s Z H t < X . + 3 w $ o +.g.g.&.                                        ",
"                                              Q ( $.Y , a 2 d Z g a t 4 4 % . @ h 1.v.8.                                        ",
"                                            Q Q ..4.q.B = g C q > - O . . 1 3 * Y e.b.c.2.                                      ",
"                                            T ` r.0.q.i.W 6 D g C q . & m ' T / k.z.7.e.9.                                      ",
"                                          / ' :.:.+.%.5.y.] x 9 2 3 v ~ ( T ,.x.7.-.+.' %.                                      ",
"                                        ] $.&.) [ ~ #.-.y.h.4.=.^ E E ! ..3.l.5.&.X.@...` (                                     ",
"                                          ` Q b l U Q $.w.+.' =.7.:.#.X.4.2.&.+.{ ' { ` W U                                     ",
"                                          W Y j 8 x M ' :.{ ` [ +.:.0.t.>.%...` ` [ ( Q U M                                     ",
"                                        W ..@.! x 9 x ( :.:...` ` [ X.%.%.%.%.X...( W Y I n                                     ",
"                                        ~ &.7.2.( M x E 5.0.;...) ! ! ( ` ' { #.5.#.T U M x                                     ",
"                                      Q [ >.t.y.:. .n n =.i.5...! Y W / ) [ ` [ $.%.` Y b                                       ",
"                                      ( %.7.t.t.7.$.! x { h.9...T U Y ! ) o...#.-.4.*.Y b                                       ",
"                                       .;.0.t.7.:.X.' b Y 7.7.X.T M M Y ^ ` +.+.&.>.y.*.n                                       ",
"                                    ( O.>.5.>.:.O. .( h j ( %.+./ Y n m Y ~ ` { X.&.>.u.}                                       "
};
