/* XPM */
static char *_b4d12fe5b3f48d0ae3f26fab4f832b2fZNFc7VIK3Ed2W3z[] = {
/* columns rows colors chars-per-pixel */
"64 64 46 1 ",
"  c black",
". c #1B1B1B",
"X c #202020",
"o c #282828",
"O c #2C2C2C",
"+ c gray19",
"@ c #373737",
"# c #403018",
"$ c #473818",
"% c #543C1D",
"& c #5C401F",
"* c #6C4824",
"= c #744C28",
"- c gray25",
"; c #484848",
": c #4C4C4C",
"> c gray33",
", c gray36",
"< c #646464",
"1 c gray44",
"2 c #7C7C7C",
"3 c #80502C",
"4 c #885830",
"5 c #905C35",
"6 c #9C6038",
"7 c #A0643C",
"8 c #A86840",
"9 c #B47044",
"0 c #BC7848",
"q c #C87C4C",
"w c #D08050",
"e c #DC8854",
"r c #E88C58",
"t c #F0945C",
"y c #FC9C60",
"u c #FCA470",
"i c #981F88",
"p c gray55",
"a c #989898",
"s c gray66",
"d c #B4B4B4",
"f c #FCB080",
"g c #FCBC9C",
"h c #C0C0C0",
"j c #D0D0D0",
"k c gainsboro",
/* pixels */
"iiiiiiiiiiiiiiiiiiiiiiiiiiiiiiiiiiiiiiiiiiiiiiiiiiiiiiiiiiiiiiii",
"iiiiiiiiiiiiiiiiiiiiiiiiiiiiiiiiiiiiiiiiiiiiiiiiiiiiiiiiiiiiiiii",
"iiiiiiiiiiiiiiiiiiiiiiiiiiiiiiiiiiiiiiiiiiiiiiiiiiiiiiiiiiiiiiii",
"iiiiiiiiiiiiiiiiiiiiiiiiiiiiiiiiiiiiiiiiiiiiiiiiiiiiiiiiiiiiiiii",
"iiiiiiiiiiiiiiiiiiiiiiiiiiiiiiiiiiiiiiiiiiiiiiiiiiiiiiiiiiiiiiii",
"iiiiiiiiiiiiiiiiiiiiiiiiiiiiiiiiiiiiiiiiiiiiiiiiiiiiiiiiiiiiiiii",
"iiiiiiiiiiiiiiiiiiiiiiiiiiiiiiiiiiiiiiiiiiiiiiiiiiiiiiiiiiiiiiii",
"iiiiiiiiiiiiiiiiiiiiiiiiiiiiiiiiiiiiiiiiiiiiiiiiiiiiiiiiiiiiiiii",
"iiiiiiiiiiiiiiiiiiiiiiiiiiiiiiiiiiiiiiiiiiiiiiiiiiiiiiiiiiiiiiii",
"iiiiiiiiiiiiiiiiiiiiiiiiiiiiiiiiiiiiiiiiiiiiiiiiiiiiiiiiiiiiiiii",
"iiiiiiiiiiiiiiiiiiiiiiiiiiiiiiiiiiiiiiiiiiiiiiiiiiiiiiiiiiiiiiii",
"iiiiiiiiiiiiiiiiiiiiiiiiiiiiiiiiiiiiiiiiiiiiiiiiiiiiiiiiiiiiiiii",
"iiiiiiiiiiiiiiiiiiiiiiiiiiiiiiiiiiiiiiiiiiiiiiiiiiiiiiiiiiiiiiii",
"iiiiiiiiiiiiiiiiiiiiiiiiiiiisdap<;@;iiiiiiiiiiiiiiiiiiiiiiiiiiii",
"iiiiiiiiiiiiiiiiiiiiiiiiiiispjp1<,;O;iiiiiiiiiiiiiiiiiiiiiiiiiii",
"iiiiiiiiiiiiiiiiiiiiiiiiiiippsp1<>;O@iiiiiiiiiiiiiiiiiiiiiiiiiii",
"iiiiiiiiiiiiiiiiiiiiiiiiiiippap1<,:O@iiiiiiiiiiiiiiiiiiiiiiiiiii",
"iiiiiiiiiiiiiiiiiiiiiiiiii1ajjhsp1>>,:iiiiiiiiiiiiiiiiiiiiiiiiii",
"iiiiiiiiiiiiiiiiiiiiiiiiiipd 6#75#5 1<iiiiiiiiiiiiiiiiiiiiiiiiii",
"iiiiiiiiiiiiiiiiiiiiiiiiiisX6ugu9gr=.1iiiiiiiiiiiiiiiiiiiiiiiiii",
"iiiiiiiiiiiiiiiiiiiiiiiiii2X*eyttyw$X<iiiiiiiiiiiiiiiiiiiiiiiiii",
"iiiiiiiiiiiiiiiiiiiiiiiiiiii$8eq9e6$iiiiiiiiiiiiiiiiiiiiiiiiiiii",
"iiiiiiiiiiiiiiiiiiiiiiiiiiii 3wfr9$ iiiiiiiiiiiiiiiiiiiiiiiiiiii",
"iiiiiiiiiiiiiiiiiiiiiiiiiii   *773   iiiiiiiiiiiiiiiiiiiiiiiiiii",
"iiiiiiiiiiiiiiiiiiiiiiii66  a  97  1   %iiiiiiiiiiiiiiiiiiiiiiii",
"iiiiiiiiiiiiiiiiiiiiiii686   a    1 %  *4iiiiiiiiiiiiiiiiiiiiiii",
"iiiiiiiiiiiiiiiiiiiiiii884    .4=. ==  888iiiiiiiiiiiiiiiiiiiiii",
"iiiiiiiiiiiiiiiiiiiiii6886  8646=6686  888=iiiiiiiiiiiiiiiiiiiii",
"iiiiiiiiiiiiiiiiiiiiii6884  kkd8=8888  666=iiiiiiiiiiiiiiiiiiiii",
"iiiiiiiiiiiiiiiiiiiii6686=  d86=%8886  4666iiiiiiiiiiiiiiiiiiiii",
"iiiiiiiiiiiiiiiiiiiii6886%  ==84%8===  =666=iiiiiiiiiiiiiiiiiiii",
"iiiiiiiiiiiiiiiiiiii688%%%  8=6=%8=86  *4666iiiiiiiiiiiiiiiiiiii",
"iiiiiiiiiiiiiiiiiiii8888%%  ==4*ooo+@o %=666=ii+iiiiiiiiiiiiiiii",
"iiiiiiiiiiiiiiiiiiii8884*% @@@@@+++++++@@@@@@@-.iiiiiiiiiiiiiiii",
"iiiiiiiiiiiiiiiiiiii8888=  ooooXXXXXXXXXXXXXooo.iiiiiiiiiiiiiiii",
"iiiiiiiiiiiiiiiiiiii=664% 9ooXX........       o.iiiiiiiiiiiiiiii",
"iiiiiiiiiiiiiiiiiiiii68847yyr5&@oXXX.*****6=iiiiiiiiiiiiiiiiiiii",
"iiiiiiiiiiiiiiiiiiiii=68*eye7%===oXo.40e6*==iiiiiiiiiiiiiiiiiiii",
"iiiiiiiiiiiiiiiiiiiiiii8=eyy7%88=ooo.40e6*=iiiiiiiiiiiiiiiiiiiii",
"iiiiiiiiiiiiiiiiiiiiiiiii%77*%88=ooo.477**iiiiiiiiiiiiiiiiiiiiii",
"iiiiiiiiiiiiiiiiiiiiiiiii%=68888=88884*%iiiiiiiiiiiiiiiiiiiiiiii",
"iiiiiiiiiiiiiiiiiiiiiiiii%=68888=88886=*iiiiiiiiiiiiiiiiiiiiiiii",
"iiiiiiiiiiiiiiiiiiiiiiiii%%=64=*%%=44%%%iiiiiiiiiiiiiiiiiiiiiiii",
"iiiiiiiiiiiiiiiiiiiiiiiii*=8886=%*6886%%iiiiiiiiiiiiiiiiiiiiiiii",
"iiiiiiiiiiiiiiiiiiiiiiiii*48886*%%4888=%iiiiiiiiiiiiiiiiiiiiiiii",
"iiiiiiiiiiiiiiiiiiiiiiiii*48884%%%4888=%iiiiiiiiiiiiiiiiiiiiiiii",
"iiiiiiiiiiiiiiiiiiiiiiiii%4886=%%%4888=%iiiiiiiiiiiiiiiiiiiiiiii",
"iiiiiiiiiiiiiiiiiiiiiiiii%*686=%%%4886=%iiiiiiiiiiiiiiiiiiiiiiii",
"iiiiiiiiiiiiiiiiiiiiiiiiii%468=%%%4864*iiiiiiiiiiiiiiiiiiiiiiiii",
"iiiiiiiiiiiiiiiiiiiiiiiiii=446*%%%464*%iiiiiiiiiiiiiiiiiiiiiiiii",
"iiiiiiiiiiiiiiiiiiiiiiiii44444*%%*464**%iiiiiiiiiiiiiiiiiiiiiiii",
"iiiiiiiiiiiiiiiiiiiiiiiii666666=%46664=%iiiiiiiiiiiiiiiiiiiiiiii",
"iiiiiiiiiiiiiiiiiiiiiiiii=84%% %%=84%% %iiiiiiiiiiiiiiiiiiiiiiii",
"iiiiiiiiiiiiiiiiiiiiiiiiii....  i ..   iiiiiiiiiiiiiiiiiiiiiiiii",
"iiiiiiiiiiiiiiiiiiiiiiiiiiX@@X. i.oO.  iiiiiiiiiiiiiiiiiiiiiiiii",
"iiiiiiiiiiiiiiiiiiiiiiiiiio@@.. i.o@.  iiiiiiiiiiiiiiiiiiiiiiiii",
"iiiiiiiiiiiiiiiiiiiiiiiiii.@@.  i o@.  iiiiiiiiiiiiiiiiiiiiiiiii",
"iiiiiiiiiiiiiiiiiiiiiiiiii.@+.  i XOX  iiiiiiiiiiiiiiiiiiiiiiiii",
"iiiiiiiiiiiiiiiiiiiiiiiiii.o@.  i .OX  iiiiiiiiiiiiiiiiiiiiiiiii",
"iiiiiiiiiiiiiiiiiiiiiiiiii .o. iii.o.  iiiiiiiiiiiiiiiiiiiiiiiii",
"iiiiiiiiiiiiiiiiiiiiiiiiiii... iii... iiiiiiiiiiiiiiiiiiiiiiiiii",
"iiiiiiiiiiiiiiiiiiiiiiiiii....  i .X.  iiiiiiiiiiiiiiiiiiiiiiiii",
"iiiiiiiiiiiiiiiiiiiiiiiii.O@O.  i o@@X..iiiiiiiiiiiiiiiiiiiiiiii",
"iiiiiiiiiiiiiiiiiiiiiiiiio@+o. iii.@@O..iiiiiiiiiiiiiiiiiiiiiiii"
};
